<?xml version="1.0" encoding="utf-8"?>
<!-- Generator: Adobe Illustrator 16.0.0, SVG Export Plug-In . SVG Version: 6.00 Build 0)  -->
<!DOCTYPE svg PUBLIC "-//W3C//DTD SVG 1.1//EN" "http://www.w3.org/Graphics/SVG/1.1/DTD/svg11.dtd">
<svg version="1.1" id="Layer_1" xmlns="http://www.w3.org/2000/svg" xmlns:xlink="http://www.w3.org/1999/xlink" x="0px" y="0px"
	 width="200px" height="200px" viewBox="0 0 200 200" enable-background="new 0 0 200 200" xml:space="preserve">
<g>
	<path fill-rule="evenodd" clip-rule="evenodd" d="M19.974,114.809c0-23.193,0.016-46.386-0.029-69.579
		c-0.003-1.78,0.459-2.43,2.366-2.417c11.525,0.076,23.052,0.025,34.577,0.011c1.281-0.001,2.945,0.446,3.739-0.186
		c0.862-0.687,0.942-2.382,1.317-3.651c4.09-13.841,13.082-23.358,26.786-27.228c23.637-6.676,45.038,7.417,50.008,29.265
		c0.324,1.424,0.583,2.316,2.463,2.266c9.318-0.25,18.641-0.329,27.963-0.443c2.865-0.035,5.735,0.1,8.596-0.023
		c1.768-0.076,2.265,0.529,2.261,2.278c-0.05,25.526-0.034,51.052-0.034,76.579c0,5.531,0.171,11.069-0.033,16.594
		c-0.562,15.23-6.321,28.056-17.824,38.271c-7.2,6.395-15.393,10.69-24.843,12.377c-3.776,0.675-7.673,0.935-11.516,0.943
		c-33.256,0.07-66.513,0.041-99.77,0.038c-4.139,0-5.998-1.843-5.998-5.913c-0.001-23.061-0.001-46.12-0.001-69.181
		C19.994,114.809,19.984,114.809,19.974,114.809z M26.357,116.637c0,21.333,0,42.665,0,63.998c0,2.874,0,2.877,2.975,2.877
		c33.399,0,66.799,0.02,100.197-0.038c2.572-0.004,5.201-0.307,7.707-0.887c11.823-2.74,20.994-9.489,28.012-19.222
		c4.891-6.783,8.132-14.502,8.226-22.784c0.338-29.729,0.142-59.463,0.181-89.195c0.002-1.654-0.62-2.232-2.253-2.197
		c-8.258,0.178-16.526,0.1-24.774,0.468c-8.151,0.364-16.298,0.641-24.39,2.224c-7.358,1.439-14.574,2.947-21.185,6.667
		c-0.655,0.369-1.959,0.066-2.74-0.347c-5.019-2.655-10.205-4.637-15.813-5.863c-10.546-2.305-21.207-2.968-31.921-3.112
		c-7.188-0.097-14.38,0.261-21.571,0.373c-2.645,0.042-2.65-0.015-2.65,2.641C26.356,73.705,26.357,95.17,26.357,116.637z
		 M128.332,44.087c-1.32-7.89-6.853-15.56-14.226-19.709c-10.418-5.863-26.199-4.778-35.722,6.088
		c-2.865,3.269-4.705,7.05-6.199,11.06c-0.629,1.686-0.288,2.618,1.698,2.721c1.454,0.074,2.903,0.347,4.343,0.599
		c7.076,1.24,14.115,2.591,20.473,6.237c0.597,0.342,1.681,0.353,2.304,0.044c5.108-2.519,10.477-4.156,16.08-5.093
		C120.794,45.416,124.499,44.753,128.332,44.087z"/>
	<path fill-rule="evenodd" clip-rule="evenodd" d="M99.64,89.962c1.895-2.771,3.626-5.348,5.404-7.893
		c3.945-5.649,9.414-9.401,15.699-11.856c14.693-5.74,27.899-2.567,39.416,7.667c7.235,6.429,11.023,14.632,11.541,24.565
		c0.535,10.254-2.24,19.229-8.746,26.923c-7.107,8.406-16.232,12.901-27.478,12.668c-5.131-0.105-10.263,0.118-15.033-2.337
		c-0.419-0.216-1.438,0.155-1.842,0.577c-5.809,6.058-11.579,12.151-17.304,18.289c-0.98,1.05-1.554,1.282-2.664,0.079
		c-4.201-4.552-8.536-8.979-12.792-13.48c-1.462-1.546-2.917-3.112-4.223-4.787c-0.819-1.05-1.553-1.123-2.729-0.661
		c-9.138,3.593-18.542,3.715-27.442,0.003c-11.826-4.933-19.765-13.943-22.643-26.603c-2.063-9.074-0.935-17.903,3.857-26.199
		c6.562-11.357,16.459-17.426,29.207-19.148c4.875-0.658,9.652,0.218,14.389,1.544c9.33,2.611,16.172,8.365,21.335,16.355
		c0.433,0.67,0.862,1.35,1.205,2.066C99.133,88.434,99.353,89.187,99.64,89.962z M65.922,135.731
		c16.331,0.169,30.51-13.97,30.45-30.863c-0.056-16.009-12.834-30.649-31.49-30.597c-15.914,0.045-29.844,13.73-30.485,28.341
		C33.57,121.429,48.162,136.476,65.922,135.731z M165.309,105.138c0.014-17.006-13.517-30.727-30.403-30.832
		c-17.517-0.109-31.331,13.431-31.35,30.729c-0.017,16.651,14.115,30.675,30.938,30.697
		C151.105,135.755,165.295,121.667,165.309,105.138z M99.88,152.652c4.359-4.574,8.648-9.022,12.827-13.571
		c0.302-0.33,0.04-1.587-0.362-2.091c-5.12-6.424-15.967-8.378-23.542-1.648c-2.587,2.298-2.813,3.07-0.441,5.632
		c1.439,1.556,3.143,2.864,4.63,4.38C95.264,147.671,97.453,150.072,99.88,152.652z M96.435,126.294c2.506,0,4.815,0,7.286,0
		c-1.353-2.188-2.608-4.218-3.867-6.254C98.671,122.203,97.55,124.255,96.435,126.294z"/>
	<path fill-rule="evenodd" clip-rule="evenodd" d="M52.043,95.969c3.772,5.096,8.69,6.688,13.335,4.423
		c2.701-1.317,4.32-3.438,4.895-6.396c0.559-2.87-0.084-5.512-1.644-8.031c6.669-0.511,15.71,3.172,19.317,11.941
		c3.236,7.865,1.411,18.932-7.35,24.548c-8.092,5.186-17.923,4.649-25.041-2.148C48.588,113.652,47.151,102.958,52.043,95.969z"/>
	<path fill-rule="evenodd" clip-rule="evenodd" d="M129.72,85.937c7.314-1.511,16.99,5.1,20.092,13.55
		c3.144,8.567-1.048,19.684-9.451,23.966c-8.481,4.322-19.522,2.899-26.094-5.922c-4.264-5.725-4.938-17.462-0.993-21.569
		c3.429,5.465,8.421,7.187,13.866,3.991C132.767,96.651,132.835,91.352,129.72,85.937z"/>
</g>
</svg>
