<?xml version="1.0" encoding="utf-8"?>
<!-- Generator: Adobe Illustrator 16.0.0, SVG Export Plug-In . SVG Version: 6.00 Build 0)  -->
<!DOCTYPE svg PUBLIC "-//W3C//DTD SVG 1.1//EN" "http://www.w3.org/Graphics/SVG/1.1/DTD/svg11.dtd">
<svg version="1.1" id="Layer_1" xmlns="http://www.w3.org/2000/svg" xmlns:xlink="http://www.w3.org/1999/xlink" x="0px" y="0px"
	 width="500px" height="500px" viewBox="0 0 500 500" enable-background="new 0 0 500 500" xml:space="preserve">
<g>
	<polygon fill="#36495D" points="195.797,298.911 195.962,299.2 196.041,299.336 303.721,112.831 354.429,25 151.62,25 
		44.058,211.301 94.615,299.075 145.252,211.369 	"/>
	<polygon fill="#36495D" points="157.148,407.639 157.148,407.639 156.571,406.637 	"/>
	<polygon fill="#36495D" points="354.457,25 354.429,25 354.443,25.025 	"/>
	<polygon fill="#3AB782" points="94.542,299.2 145.087,386.744 145.252,387.029 145.332,387.166 156.571,406.637 94.615,299.075 	
		"/>
	<polygon fill="#3AB782" points="405.232,112.994 405.138,112.831 354.443,25.025 354.429,25 303.721,112.831 196.041,299.336 
		195.962,299.2 195.797,298.911 145.252,211.369 94.615,299.075 156.571,406.637 157.148,407.639 196.041,475 246.751,387.166 
		354.429,200.664 354.522,200.824 405.232,288.655 455.942,200.824 	"/>
</g>
</svg>
