<?xml version="1.0" encoding="utf-8"?>
<!-- Generator: Adobe Illustrator 16.0.0, SVG Export Plug-In . SVG Version: 6.00 Build 0)  -->
<!DOCTYPE svg PUBLIC "-//W3C//DTD SVG 1.1//EN" "http://www.w3.org/Graphics/SVG/1.1/DTD/svg11.dtd">
<svg version="1.1" id="Layer_1" xmlns="http://www.w3.org/2000/svg" xmlns:xlink="http://www.w3.org/1999/xlink" x="0px" y="0px"
	 width="100px" height="100px" viewBox="0 0 100 100" enable-background="new 0 0 100 100" xml:space="preserve">
<g>
	<path fill="#557BBE" d="M89.852,56.554c0.016,0.489,0.045,0.98,0.045,1.472c0,8.46-0.007,16.923,0,25.384
		c0.001,1.439-0.207,2.799-1.185,3.938c-0.342-0.052-0.545,0.167-0.759,0.378c-1.261,1.235-2.787,1.776-4.54,1.776
		c-11.54-0.008-23.079-0.004-34.618-0.004c0.084-0.599-0.384-0.872-0.722-1.212C36.673,76.88,25.27,65.479,13.869,54.074
		c-0.277-0.276-0.522-0.584-0.782-0.877c0.654,0.084,1.437,0.129,1.72,0.761c0.448,1.003,1.176,0.892,1.962,0.735
		c0.683-0.134,1.459-0.356,2.005,0.046c0.885,0.649,1.743,0.509,2.602,0.193c2.003-0.734,3.859-1.777,5.669-2.898
		c0.441-0.273,0.871-0.716,1.223,0.112c0.146,0.345,0.491,0.278,0.78,0.227c0.609-0.108,1.217-0.229,1.821-0.363
		c1.022-0.231,1.659,0.008,2.011,0.999c0.244,0.683,0.625,0.862,1.249,0.779c0.973-0.13,1.776,0.207,2.549,0.785
		c0.733,0.546,1.582,0.773,2.509,0.479c0.346-0.108,0.788-0.229,1.03,0.063c0.998,1.207,2.317,0.611,3.336,0.373
		c1.602-0.373,3.092-1.232,4.628-1.888c0.399-0.17,0.934-0.424,0.908,0.288c-0.032,0.894,0.356,0.667,0.807,0.432
		c0.901-0.472,1.794-0.954,2.687-1.444c0.496-0.271,0.891-0.316,1.431,0.062c0.714,0.499,1.582,1.119,2.367,1.097
		c1.242-0.034,2.175,0.595,3.248,0.906c2.768,0.799,5.531,1.598,8.438,0.513c0.448-0.168,1.093-0.45,1.57-0.023
		c0.464,0.413,0.865,0.356,1.34,0.099c1.352-0.742,2.723-1.446,4.055-2.218c1.39-0.807,2.743-0.654,3.943,0.45
		c0.669,0.612,1.34,1.308,2.377,1.21c1.309-0.123,2.528,0.286,3.746,0.645c0.455,0.136,1.024-0.01,1.368,0.442
		c0.367,0.482,0.865,0.521,1.412,0.501C88.536,56.533,89.193,56.552,89.852,56.554z M77.533,70.007
		c-1.578,0-3.156,0.021-4.734-0.011c-0.561-0.011-0.748,0.169-0.729,0.73c0.039,1.019,0.039,2.039,0,3.057
		c-0.021,0.558,0.157,0.737,0.72,0.726c1.545-0.033,3.093,0.02,4.637-0.022c0.769-0.021,0.896,0.209,0.633,0.904
		c-0.861,2.302-3.075,3.691-5.959,3.688c-2.953-0.004-5.56-1.892-6.497-4.704c-0.967-2.899,0.039-6.063,2.512-7.901
		c2.332-1.734,5.449-1.746,7.892,0.024c0.43,0.313,0.641,0.262,0.968-0.084c0.746-0.787,1.496-1.578,2.307-2.294
		c0.549-0.486,0.367-0.738-0.103-1.11c-2.005-1.587-4.291-2.408-6.828-2.461c-7.184-0.148-12.693,6.018-11.707,13.21
		c1.185,8.624,10.945,12.69,17.94,8.036c3.968-2.642,4.884-6.704,4.499-11.196c-0.047-0.541-0.374-0.602-0.817-0.598
		C80.689,70.015,79.111,70.007,77.533,70.007z"/>
	<path fill="#88ABDA" d="M49.964,10.024c6.461,0.004,12.924,0.008,19.387,0.013c0.017,0.294,0.017,0.59,0.055,0.882
		c0.495,3.867,0.989,7.734,1.496,11.599c0.501,3.8,1.069,7.592,1.512,11.398c0.288,2.468,0.862,4.921,0.625,7.436
		c-0.041,0.049-0.11,0.094-0.12,0.149c-1.017,5.929-6.445,10.08-12.574,9.519c-3.629-0.332-6.249-2.274-8.416-5.019
		c-1.04-1.315-1.293-2.966-1.924-4.456c-0.009-5.849-0.018-11.697-0.028-17.544c-0.008-4.468-0.021-8.937-0.029-13.404
		C49.954,10.407,49.958,10.215,49.964,10.024z"/>
	<path fill="#4A59A8" d="M73.041,41.353c0.236-2.515-0.337-4.967-0.625-7.436c-0.443-3.807-1.011-7.598-1.512-11.398
		c-0.509-3.866-1.002-7.732-1.497-11.599c-0.038-0.291-0.038-0.588-0.055-0.882c4.7-0.006,9.403-0.041,14.104-0.009
		c3.115,0.021,5.566,1.96,6.344,4.917c2.041,7.769,4.059,15.543,6.131,23.303c0.454,1.701,0.273,3.319-0.265,4.927
		c-0.9,2.686-2.58,4.77-4.992,6.256c-0.276,0.17-0.604,0.274-0.768,0.589c-1.766,0.615-3.529,1.083-5.453,1.042
		c-4.635-0.098-7.821-2.377-10.077-6.259C73.744,43.715,73.648,42.439,73.041,41.353z"/>
	<path fill="#88ABDA" d="M9.986,50.066c-0.103-0.411-0.494-0.493-0.787-0.687c-3.437-2.268-5.434-5.389-5.388-9.574
		c0.021-1.903,0.827-3.693,1.298-5.526c1.545-6.022,3.212-12.015,4.7-18.052c0.522-2.117,1.229-3.979,3.133-5.218
		c0.967-0.628,2.035-0.982,3.141-0.991c4.86-0.041,9.719-0.002,14.579,0.007c-0.002,0.186-0.005,0.373-0.007,0.56
		c-0.642,3.33-0.915,6.711-1.379,10.065c-0.456,3.298-0.893,6.599-1.296,9.904c-0.448,3.664-1.063,7.308-1.283,10.998
		c-0.063,0.11-0.158,0.213-0.182,0.331c-1.25,6.13-7.178,10.099-13.321,8.992C12.096,50.679,11.118,50.078,9.986,50.066z"/>
	<path fill="#5B82C2" d="M13.087,53.197c0.259,0.293,0.505,0.601,0.782,0.877c11.4,11.405,22.804,22.806,34.203,34.211
		c0.337,0.34,0.807,0.613,0.723,1.212c-10.653,0-21.305-0.004-31.958,0.002c-1.876,0.002-3.565-0.454-4.906-1.849
		c-0.19-0.197-0.397-0.348-0.69-0.306c-0.926-1.082-1.183-2.365-1.179-3.745c0.014-4.237,0.01-8.475,0.01-12.709
		c0-5.879-0.011-11.758,0.007-17.636c0.002-0.878-0.263-1.764,0.033-2.638c0.416-0.006,0.612,0.328,0.866,0.568
		C11.684,51.854,12.383,52.526,13.087,53.197z"/>
	<path fill="#4C70B7" d="M13.087,53.197c-0.704-0.671-1.403-1.344-2.109-2.012c-0.254-0.24-0.45-0.574-0.866-0.568
		c-0.043-0.183-0.084-0.367-0.125-0.551c1.132,0.011,2.11,0.612,3.208,0.811c6.144,1.106,12.071-2.862,13.321-8.992
		c0.024-0.118,0.12-0.221,0.182-0.331c0.626,0.14,0.464,0.735,0.581,1.118c1.528,5.059,5.478,7.877,9.992,8.329
		c5.806,0.583,10.995-3.166,12.324-8.703c0.069-0.293,0.152-0.568,0.413-0.752c0.631,1.49,0.884,3.141,1.924,4.456
		c2.167,2.743,4.787,4.688,8.416,5.019c6.129,0.561,11.558-3.589,12.574-9.519c0.01-0.055,0.079-0.1,0.12-0.149
		c0.609,1.087,0.704,2.362,1.337,3.452c2.255,3.883,5.443,6.162,10.078,6.259c1.922,0.04,3.688-0.428,5.452-1.042
		c0.129,2.179-0.015,4.356-0.056,6.532c-0.658,0-1.316-0.021-1.972,0.002c-0.547,0.021-1.045-0.02-1.412-0.5
		c-0.344-0.451-0.913-0.307-1.368-0.443c-1.218-0.356-2.438-0.767-3.746-0.644c-1.037,0.098-1.706-0.598-2.377-1.212
		c-1.2-1.104-2.554-1.255-3.943-0.448c-1.331,0.772-2.703,1.476-4.055,2.217c-0.475,0.261-0.876,0.316-1.34-0.098
		c-0.478-0.427-1.121-0.145-1.57,0.023c-2.906,1.084-5.668,0.286-8.438-0.514c-1.073-0.311-2.005-0.939-3.248-0.905
		c-0.784,0.021-1.653-0.598-2.367-1.097c-0.54-0.379-0.935-0.332-1.431-0.062c-0.893,0.489-1.786,0.973-2.687,1.444
		c-0.451,0.235-0.839,0.462-0.807-0.432c0.025-0.713-0.51-0.458-0.908-0.288c-1.537,0.655-3.025,1.515-4.628,1.888
		c-1.02,0.238-2.338,0.834-3.336-0.373c-0.241-0.292-0.684-0.173-1.029-0.063c-0.927,0.294-1.776,0.066-2.509-0.479
		c-0.774-0.578-1.577-0.915-2.549-0.785c-0.625,0.083-1.006-0.097-1.249-0.779c-0.354-0.991-0.989-1.23-2.011-1
		c-0.604,0.137-1.212,0.256-1.821,0.364c-0.29,0.054-0.633,0.117-0.78-0.227c-0.352-0.83-0.782-0.387-1.223-0.112
		c-1.81,1.121-3.667,2.164-5.669,2.897c-0.86,0.316-1.717,0.456-2.602-0.192c-0.546-0.401-1.323-0.181-2.005-0.046
		c-0.788,0.156-1.515,0.269-1.962-0.736C14.524,53.326,13.741,53.281,13.087,53.197z"/>
	<path fill="#4C70B7" d="M11.239,87.345c0.294-0.042,0.5,0.108,0.69,0.306c1.342,1.396,3.03,1.853,4.906,1.851
		c10.652-0.006,21.306-0.004,31.958-0.004c11.54,0,23.079-0.002,34.618,0.004c1.752,0.002,3.279-0.541,4.54-1.776
		c0.214-0.209,0.418-0.429,0.759-0.378c-1.293,1.92-3.183,2.655-5.405,2.653c-11.603-0.007-23.206-0.032-34.807-0.042
		c-10.452-0.008-20.904-0.026-31.355,0.018c-2.224,0.011-4.153-0.48-5.64-2.218C11.4,87.633,11.327,87.482,11.239,87.345z"/>
	<path fill="#557BBE" d="M30.656,10.586c0.002-0.187,0.004-0.374,0.007-0.56c6.435-0.001,12.868-0.001,19.302-0.002
		c-0.006,0.191-0.011,0.382-0.017,0.573C43.517,10.594,37.085,10.59,30.656,10.586z"/>
	<path fill="#FEFEFF" d="M77.533,70.007c1.578,0,3.156,0.01,4.735-0.005c0.442-0.004,0.771,0.056,0.817,0.597
		c0.386,4.493-0.53,8.557-4.499,11.198c-6.995,4.653-16.756,0.588-17.94-8.036c-0.987-7.192,4.524-13.36,11.707-13.212
		c2.536,0.054,4.822,0.874,6.829,2.462c0.468,0.371,0.65,0.623,0.102,1.109c-0.812,0.718-1.56,1.509-2.307,2.295
		c-0.327,0.346-0.538,0.396-0.968,0.084c-2.443-1.771-5.561-1.759-7.891-0.023c-2.474,1.838-3.479,5.001-2.513,7.9
		c0.938,2.813,3.544,4.7,6.497,4.704c2.883,0.003,5.099-1.387,5.96-3.688c0.262-0.696,0.135-0.927-0.635-0.905
		c-1.543,0.042-3.09-0.01-4.635,0.023c-0.563,0.012-0.741-0.168-0.72-0.727c0.04-1.019,0.037-2.039,0-3.058
		c-0.021-0.561,0.168-0.739,0.729-0.729C74.377,70.027,75.955,70.007,77.533,70.007z"/>
	<path fill="#4A59A8" d="M30.656,10.586c6.43,0.003,12.861,0.007,19.293,0.011c0.009,4.467,0.021,8.936,0.029,13.403
		c0.01,5.849,0.019,11.697,0.028,17.545c-0.26,0.184-0.343,0.46-0.413,0.752c-1.328,5.538-6.518,9.286-12.324,8.703
		c-4.514-0.452-8.462-3.271-9.992-8.329c-0.115-0.383,0.046-0.978-0.581-1.118c0.219-3.69,0.834-7.334,1.283-10.998
		c0.404-3.304,0.84-6.606,1.296-9.904C29.741,17.298,30.014,13.916,30.656,10.586z"/>
</g>
</svg>
