<?xml version="1.0" encoding="utf-8"?>
<!-- Generator: Adobe Illustrator 16.0.0, SVG Export Plug-In . SVG Version: 6.00 Build 0)  -->
<!DOCTYPE svg PUBLIC "-//W3C//DTD SVG 1.1//EN" "http://www.w3.org/Graphics/SVG/1.1/DTD/svg11.dtd">
<svg version="1.1" id="Layer_1" xmlns="http://www.w3.org/2000/svg" xmlns:xlink="http://www.w3.org/1999/xlink" x="0px" y="0px"
	 width="100px" height="100px" viewBox="0 0 100 100" enable-background="new 0 0 100 100" xml:space="preserve">
<g>
	<path fill="#454545" d="M14.358,56.667c0-10.453,0.002-20.907-0.008-31.359c-0.001-0.502,0.069-0.759,0.671-0.754
		c5.27,0.045,10.541-0.129,15.811-0.015c0.43,0.009,0.866-0.054,1.291,0.132c0.308,0.134,0.484-0.099,0.548-0.368
		c0.267-1.121,0.655-2.202,1.003-3.298c0.399-1.253,1.131-2.284,1.805-3.365c0.997-1.597,2.377-2.867,3.776-4.062
		c1.033-0.883,2.338-1.475,3.577-2.081c0.778-0.38,1.601-0.702,2.452-0.94c0.476-0.133,0.947-0.154,1.418-0.224
		c1.382-0.206,2.763-0.376,4.17-0.322c3.213,0.127,6.153,1.069,8.843,2.817c2.424,1.576,4.342,3.663,5.722,6.168
		c0.707,1.28,1.344,2.648,1.646,4.125c0.08,0.401,0.233,0.783,0.271,1.203c0.031,0.369,0.308,0.482,0.665,0.444
		c0.715-0.077,1.429-0.185,2.147-0.201c4.94-0.116,9.882,0.022,14.822-0.009c0.469-0.002,0.662,0.121,0.662,0.63
		c-0.016,14.099-0.011,28.198-0.028,42.296c-0.002,1.588-0.312,3.145-0.738,4.679c-0.512,1.846-0.992,3.703-1.996,5.371
		c-0.841,1.398-1.595,2.868-2.751,4.037c-0.831,0.841-1.498,1.831-2.45,2.568c-1.955,1.516-3.904,2.993-6.233,3.957
		c-1.336,0.552-2.707,0.963-4.06,1.443c-0.342,0.122-0.745,0.058-1.107,0.134c-1.945,0.402-3.916,0.32-5.88,0.32
		c-14.648,0.002-29.296,0.002-43.944,0.002c-1.063,0-2.103-1.04-2.103-2.1C14.358,77.487,14.358,67.078,14.358,56.667z
		 M61.263,28.323c-0.48,0.102-1.044-0.238-1.453,0.264c-0.083,0.006-0.168,0.011-0.253,0.017c-0.364,0.059-0.798-0.204-1.079,0.235
		c-0.362,0.248-0.776,0.094-1.166,0.146c-0.357,0.074-0.796-0.185-1.063,0.259c-0.741,0.069-1.379,0.468-2.061,0.706
		c-0.732,0.255-1.511,0.392-2.195,0.851c-0.681,0.457-1.453,0.832-2.326,0.839c-0.093-0.086-0.17-0.204-0.28-0.257
		c-1.326-0.629-2.62-1.326-4.009-1.821c-1.346-0.48-2.747-0.71-4.142-0.972c-0.04-0.139-0.124-0.216-0.276-0.229
		c-1.048-0.091-2.075-0.444-3.107-0.484c-1.647-0.066-3.271-0.462-4.928-0.323c-0.432-0.011-0.864-0.021-1.296-0.034
		c-0.085-0.305-0.341-0.224-0.544-0.225c-4.392-0.003-8.784-0.003-13.177,0c-0.204,0-0.459-0.081-0.546,0.223
		c-0.415,0.129-0.236,0.476-0.236,0.724c-0.007,19.321-0.007,38.642-0.007,57.963c0,0.242,0,0.483-0.003,0.725
		c-0.002,0.187,0.083,0.285,0.271,0.294c1.934-0.003,3.869-0.005,5.803-0.009c0.153,0.007,0.307,0.016,0.46,0.016
		c8.583,0,17.167,0.002,25.751,0c0.175,0,0.35-0.019,0.524-0.028c2.063,0.011,4.129,0.068,6.191,0.02
		c3.385-0.081,6.781,0.29,10.153-0.353c1.338-0.255,2.604-0.714,3.819-1.27c1.29-0.59,2.638-1.116,3.74-2.061
		c0.509-0.438,1.155-0.717,1.543-1.299c0.607-0.202,0.888-0.771,1.327-1.163c1.696-1.504,2.821-3.435,4.025-5.31
		c0.263-0.411,0.229-0.896,0.454-1.323c0.362-0.692,0.604-1.474,0.783-2.207c0.136-0.563,0.394-1.147,0.38-1.761
		c0.259-0.008,0.251-0.197,0.255-0.375c0.008-0.395,0.013-0.789,0.019-1.184c0.204-0.537,0.24-1.09,0.24-1.658
		c-0.004-13.042,0-26.082,0.002-39.123c0-0.088,0.014-0.178-0.003-0.262c-0.077-0.403-0.291-0.665-0.72-0.461
		c-0.283,0.136-0.578,0.163-0.826,0.073c-0.78-0.283-1.512-0.258-2.228,0.166c-0.019-0.386-0.296-0.358-0.564-0.357
		c-1.973,0.002-3.945,0-5.918,0.006c-0.204,0.001-0.456-0.078-0.542,0.225c-0.479,0.004-0.956,0.009-1.434,0.013
		c-1.295,0.008-2.588,0.015-3.885,0.023c-0.193,0.001-0.411-0.04-0.471,0.234c-0.085,0.002-0.17,0.005-0.257,0.009
		c-0.68,0.005-1.36,0.01-2.04,0.019c-0.193,0.001-0.41-0.034-0.476,0.233c-0.172,0.002-0.344,0.007-0.516,0.011
		c-0.283,0.001-0.575-0.033-0.853,0.017C61.833,28.135,61.445,27.883,61.263,28.323L61.263,28.323z M37.394,24.589
		c-0.065,0.35,0.089,0.421,0.414,0.5c0.729,0.178,1.48,0.12,2.2,0.268c1.445,0.297,2.885,0.619,4.321,0.96
		c1.904,0.454,3.674,1.174,5.368,2.119c0.175,0.098,0.29,0.122,0.467,0.034c0.961-0.478,1.966-0.862,2.952-1.285
		c1.629-0.699,3.371-0.912,5.068-1.297c1.342-0.305,2.721-0.56,4.115-0.602c0.304-0.009,0.473-0.235,0.396-0.445
		c-0.095-0.256-0.063-0.52-0.15-0.76c-0.838-2.281-1.984-4.347-3.809-6.025c-2.399-2.205-5.21-3.266-8.433-3.326
		c-1.089-0.021-2.175-0.005-3.234,0.299c-0.846,0.244-1.754,0.366-2.525,0.757c-1.432,0.729-2.692,1.736-3.861,2.851
		c-0.912,0.87-1.583,1.909-2.157,3.004C38.035,22.574,37.652,23.565,37.394,24.589z"/>
	<path fill="#509D4D" d="M79.081,27.651c0.717-0.424,1.448-0.448,2.228-0.166c0.247,0.091,0.541,0.063,0.827-0.073
		c0.427-0.204,0.641,0.057,0.719,0.461c0.017,0.084,0.003,0.175,0.003,0.262c-0.003,13.041-0.005,26.08-0.003,39.122
		c0,0.57-0.034,1.122-0.238,1.658c-0.282,0.035-0.258,0.247-0.262,0.444c-0.005,0.371-0.009,0.743-0.013,1.114
		c0.015,0.613-0.243,1.197-0.38,1.76c-0.179,0.734-0.42,1.516-0.784,2.208c-0.223,0.428-0.191,0.911-0.454,1.323
		c-1.203,1.875-2.327,3.806-4.024,5.31c-0.439,0.392-0.721,0.961-1.327,1.163c-0.586-0.845-1.043-1.778-1.51-2.678
		c-0.98-1.883-2.304-3.48-3.777-4.938c-0.992-0.98-1.896-2.066-3.052-2.897c-0.422-0.301-0.908-0.463-1.31-0.815
		c-0.67-0.59-1.424-1.094-2.245-1.483c-0.356-0.169-0.677-0.431-0.894-0.782c0.129-0.014,0.261-0.025,0.391-0.039
		c0.265,0.014,0.529,0.023,0.793,0.035c1.275,0.063,2.549,0.078,3.821-0.033c0.094-0.015,0.19-0.027,0.286-0.042
		c0.123-0.011,0.247-0.021,0.372-0.032c0.444-0.092,0.966,0.193,1.333-0.271l0.059,0.006l0.059-0.013
		c0.244-0.042,0.563,0.117,0.689-0.25c0.077-0.006,0.154-0.013,0.233-0.018c0.203,0.022,0.381,0.003,0.431-0.246
		c0.075-0.005,0.151-0.014,0.227-0.019c0.217-0.009,0.467,0.061,0.543-0.249c0.083-0.013,0.165-0.022,0.248-0.035
		c0.163,0.021,0.263-0.038,0.271-0.212c0.085-0.015,0.169-0.03,0.254-0.044c0.162,0.019,0.271-0.03,0.277-0.211
		c0.084-0.017,0.168-0.034,0.25-0.05c1.42-0.814,2.873-1.577,3.95-2.869c0.301-0.358,0.785-0.588,1.015-0.978
		c0.768-1.316,1.811-2.442,2.478-3.837c0.737-1.541,1.02-3.165,1.254-4.818c0.015-0.349,0.028-0.695,0.044-1.043
		c0.209-0.111,0.204-0.312,0.204-0.505c-0.011-0.722,0.096-1.453-0.22-2.141c-0.007-0.177-0.014-0.353-0.019-0.528
		c0.126-0.627-0.251-1.175-0.271-1.782c-0.046-1.352-0.626-2.533-1.253-3.686c-0.375-0.692-0.823-1.348-1.271-1.997
		c-1.321-1.916-2.945-3.51-4.994-4.644l-0.011-0.007c-0.023-0.11-0.078-0.175-0.18-0.245c-0.851-0.594-1.846-0.842-2.79-1.221
		c-0.655-0.262-1.289-0.57-2.022-0.52c-0.085-0.007-0.169-0.015-0.254-0.022c-0.427-0.443-1.055-0.375-1.545-0.431
		c-2.13-0.241-4.274-0.096-6.32,0.531c-1.541,0.473-3.115,0.986-4.438,1.957c-0.55,0.402-1.288,0.628-1.576,1.35l-0.008,0.006
		c-0.133,0.001-0.246,0.036-0.36,0.118c-1.545,1.118-2.592,2.648-3.531,4.268c-0.02,0.083-0.038,0.166-0.056,0.249
		c-0.502,0.355-0.799,0.817-0.778,1.451l0.007-0.007c-0.167-0.006-0.333-0.012-0.499-0.019c-0.01-0.075-0.021-0.149-0.031-0.224
		c0.004-0.087,0.009-0.175,0.015-0.263c0.374-0.055,0.262-0.35,0.263-0.568c0.004-4.057,0.001-8.115,0.007-12.172
		c0.001-0.274-0.006-0.524-0.268-0.687c0.873-0.008,1.645-0.383,2.326-0.84c0.685-0.458,1.463-0.595,2.193-0.85
		c0.684-0.238,1.319-0.636,2.062-0.706c0.354-0.092,0.813,0.26,1.063-0.258c0.389-0.052,0.804,0.103,1.166-0.146
		c0.361-0.068,0.809,0.256,1.079-0.235c0.085-0.005,0.17-0.01,0.254-0.017c0.258,0.001,0.517,0.027,0.77-0.004
		c0.241-0.03,0.588,0.168,0.683-0.26h-0.001c0.406,0.001,0.814,0.006,1.22,0.001c0.205-0.002,0.452,0.056,0.499-0.257
		c0.17-0.004,0.343-0.008,0.515-0.011c0.669,0.001,1.339,0.007,2.009,0.002c0.205-0.001,0.456,0.064,0.507-0.254
		c0.085-0.002,0.171-0.006,0.257-0.009c1.282,0,2.563,0.002,3.846-0.001c0.206-0.001,0.459,0.066,0.51-0.255
		c0.478-0.004,0.955-0.009,1.434-0.014c1.066,0.006,2.134,0.004,3.201,0.019C76.532,27.563,77.811,27.475,79.081,27.651z"/>
	<path fill="#85C568" d="M49.925,87.199c-0.176,0.012-0.351,0.029-0.525,0.029c-8.584,0.002-17.167,0-25.751,0
		c-0.153,0-0.307-0.01-0.46-0.017c-0.003-0.035-0.009-0.071-0.015-0.107c0-0.088,0.002-0.177,0.004-0.266
		c0.147-0.375,0.038-0.808,0.177-1.158c0.599-1.496,1.076-3.041,1.82-4.481c0.829-1.607,1.704-3.174,2.898-4.547
		c0.351-0.404,0.688-0.842,0.986-1.288c0.792-1.187,1.928-2.01,2.967-2.936c0.514-0.459,1.07-0.859,1.623-1.267
		c0.825-0.605,1.654-1.19,2.536-1.707c0.371-0.216,0.761-0.399,0.972-0.804c0.174-0.042,0.347-0.084,0.521-0.126h0.001
		c0.363-0.06,0.791,0.144,1.07-0.261c0.081-0.008,0.163-0.015,0.244-0.021c0.24-0.029,0.518,0.042,0.657-0.25h0.001
		c0.216-0.02,0.487,0.086,0.564-0.249c0.075-0.009,0.151-0.02,0.227-0.028c0.215-0.002,0.461,0.067,0.537-0.243l-0.004,0.003
		c0.17,0.004,0.34,0.007,0.512,0.01l-0.006-0.008c0.291,0.539,0.605,1.056,1.194,1.325c-0.008,0.049,0.01,0.087,0.053,0.112
		c-0.012,0.165,0.085,0.224,0.231,0.233l0.019,0.021c0.006,0.155,0.089,0.237,0.243,0.245l0.019,0.019
		c0.007,0.155,0.09,0.236,0.244,0.245l0.018,0.02c0.008,0.153,0.093,0.233,0.244,0.249l0.014,0.016
		c-0.005,0.171,0.094,0.238,0.25,0.249l0.012,0.016c0,0.165,0.082,0.249,0.246,0.254c0.045,0.093,0.09,0.187,0.134,0.279
		c0.173,0.532,0.73,0.675,1.063,1.056c0.712,0.81,1.487,1.563,2.238,2.342l0.02,0.019c0.005,0.158,0.088,0.238,0.242,0.247
		l0.019,0.019c0.011,0.151,0.085,0.241,0.244,0.247l0.019,0.017c0,0.164,0.084,0.244,0.245,0.249l0.013,0.018
		c0.403,0.607,0.937,1.101,1.424,1.635C49.926,80.139,49.926,83.669,49.925,87.199z"/>
	<path fill="#61BB56" d="M49.925,87.199c0-3.53,0-7.061,0.001-10.592c0.425-0.159,0.643-0.554,0.925-0.858
		c0.992-1.07,2.104-2.035,2.926-3.259l-0.009,0.009c0.189,0.006,0.273-0.093,0.269-0.275l-0.009,0.006
		c0.188,0.005,0.271-0.093,0.268-0.271l-0.007,0.007c0.185,0.001,0.274-0.089,0.27-0.272l-0.007,0.006
		c0.187,0.003,0.267-0.098,0.271-0.273c0.041-0.041,0.081-0.083,0.123-0.123c0.178-0.006,0.267-0.097,0.265-0.274l-0.003,0.002
		c0.174-0.004,0.264-0.092,0.263-0.269l0,0c0.175-0.001,0.257-0.093,0.257-0.268l0.001-0.002c0.17-0.005,0.255-0.094,0.258-0.263
		l0.006-0.003c0.167-0.005,0.255-0.093,0.256-0.261l0.006-0.008c0.166-0.006,0.252-0.089,0.254-0.257l0.007-0.012
		c0.164-0.008,0.249-0.092,0.253-0.255l0.012-0.011c0.163-0.006,0.248-0.087,0.247-0.253l0.014-0.016
		c0.157-0.01,0.241-0.092,0.246-0.249l0.019-0.019c0.154-0.009,0.241-0.083,0.239-0.243c0.052-0.055,0.104-0.11,0.156-0.166
		c0.353-0.266,0.605-0.616,0.821-0.997l-0.008,0.007c0.186,0.026,0.359,0.008,0.559,0.103c0.357,0.172,0.702,0.446,1.143,0.397
		l0.005,0.001c0.259,0.424,0.691,0.195,1.042,0.278l-0.006-0.002c0.168,0.404,0.53,0.188,0.802,0.251
		c0.177,0.042,0.353,0.084,0.529,0.128c0.218,0.352,0.537,0.612,0.895,0.781c0.821,0.39,1.575,0.894,2.245,1.484
		c0.402,0.353,0.888,0.514,1.31,0.814c1.156,0.831,2.06,1.917,3.051,2.897c1.475,1.458,2.799,3.055,3.777,4.938
		c0.468,0.899,0.925,1.834,1.512,2.678c-0.39,0.582-1.034,0.862-1.545,1.299c-1.102,0.945-2.45,1.469-3.739,2.061
		c-1.215,0.556-2.481,1.016-3.819,1.27c-3.371,0.644-6.769,0.272-10.153,0.353C54.054,87.269,51.988,87.211,49.925,87.199z"/>
	<path fill="#61BB56" d="M49.667,31.638c0.262,0.163,0.27,0.414,0.269,0.688c-0.006,4.057-0.002,8.115-0.007,12.172
		c-0.001,0.218,0.111,0.513-0.263,0.568c-0.684-1.711-1.968-3.012-3.052-4.449c-0.588-0.779-1.55-1.137-2.229-1.8
		c-0.819-0.801-1.83-1.302-2.818-1.725c-1.666-0.711-3.428-1.263-5.242-1.463c-2.045-0.226-4.097-0.036-6.061,0.563
		c-1.678,0.512-3.4,0.983-4.81,2.146c-0.655,0.54-1.51,0.885-2.045,1.512c-1.044,1.223-2.366,2.235-3.032,3.764
		c-0.208-0.059-0.386-0.362-0.616,0.039c-0.536,0.937-1.089,1.862-1.452,2.886c-0.049,0.136,0.002,0.348-0.219,0.33
		c-0.205-0.018-0.175-0.216-0.181-0.365c-0.005-0.131-0.001-0.264-0.001-0.396c0-5.729,0-11.458,0-17.187
		c0-0.857,0-0.873,0.849-0.855c5.49,0.102,10.985-0.23,16.471,0.24c1.167,0.1,2.316,0.462,3.507,0.293
		c0.078-0.01,0.179,0.028,0.247,0.075c0.526,0.367,1.163,0.068,1.721,0.289c0.22,0.086,0.263-0.16,0.268-0.345
		c0.088-0.01,0.177-0.02,0.266-0.029c1.396,0.261,2.796,0.491,4.142,0.971c1.389,0.496,2.683,1.192,4.009,1.822
		C49.498,31.434,49.575,31.552,49.667,31.638z"/>
	<path fill="#54894E" d="M17.387,87.221c-0.188-0.008-0.275-0.106-0.271-0.293c0.003-0.241,0.002-0.482,0.002-0.724
		c0-19.322,0-38.643,0.007-57.964c0-0.248-0.178-0.595,0.236-0.724l0.044,0.044c-0.009,0.131-0.025,0.262-0.025,0.394
		c0,19.715,0.002,39.433,0.004,59.146C17.383,87.142,17.384,87.181,17.387,87.221z"/>
	<path fill="#54894E" d="M17.361,27.516c0.088-0.303,0.343-0.223,0.547-0.223c4.392-0.002,8.784-0.003,13.177,0
		c0.204,0.001,0.459-0.08,0.545,0.225c-0.269,0.016-0.537,0.031-0.806,0.046c-3.208-0.001-6.415-0.002-9.624-0.004
		c-1.096,0.001-2.193,0.003-3.291,0.004c-0.168-0.001-0.336-0.003-0.504-0.004L17.361,27.516z"/>
	<path fill="#519E4E" d="M41.237,28.589c-0.089,0.009-0.178,0.02-0.267,0.029c-1.132-0.105-2.252-0.454-3.361-0.492
		c-1.567-0.054-3.104-0.464-4.677-0.327c-0.002-0.082-0.004-0.165-0.008-0.246c1.657-0.139,3.281,0.258,4.928,0.323
		c1.032,0.04,2.059,0.393,3.106,0.485C41.113,28.373,41.197,28.449,41.237,28.589z"/>
	<path fill="#54894E" d="M79.081,27.651c-1.271-0.176-2.549-0.089-3.823-0.108c-1.067-0.015-2.134-0.013-3.201-0.019
		c0.087-0.302,0.338-0.224,0.543-0.225c1.973-0.004,3.944-0.003,5.917-0.006C78.785,27.293,79.062,27.264,79.081,27.651z"/>
	<path fill="#54894E" d="M70.624,27.538c-0.052,0.322-0.305,0.254-0.51,0.255c-1.283,0.004-2.566,0.002-3.847,0.002
		c0.061-0.274,0.278-0.233,0.472-0.234C68.034,27.553,69.329,27.546,70.624,27.538z"/>
	<path fill="#519E4E" d="M17.387,87.221c-0.002-0.04-0.003-0.079-0.002-0.119c1.931,0.002,3.861,0.004,5.792,0.004
		c0.006,0.036,0.01,0.072,0.015,0.107C21.255,87.217,19.321,87.219,17.387,87.221z"/>
	<path fill="#54894E" d="M66.011,27.803c-0.052,0.317-0.304,0.253-0.506,0.254c-0.671,0.004-1.341,0-2.011-0.001
		c0.065-0.267,0.283-0.231,0.476-0.233C64.65,27.813,65.331,27.809,66.011,27.803z"/>
	<path fill="#61BB56" d="M32.925,27.553c0.003,0.082,0.005,0.165,0.008,0.246c-0.525,0-1.051,0.007-1.578-0.002
		c-0.202-0.003-0.461,0.089-0.532-0.231c0.27-0.015,0.538-0.03,0.806-0.045C32.063,27.531,32.494,27.541,32.925,27.553z"/>
	<path fill="#54894E" d="M62.979,28.066c-0.045,0.314-0.292,0.254-0.497,0.257c-0.406,0.005-0.814,0-1.219-0.001
		c0.183-0.44,0.572-0.188,0.863-0.239C62.402,28.033,62.694,28.067,62.979,28.066z"/>
	<path fill="#54894E" d="M82.342,70.477c0.004-0.371,0.008-0.744,0.013-1.114c0.004-0.198-0.021-0.409,0.262-0.444
		c-0.007,0.395-0.012,0.789-0.02,1.184C82.594,70.279,82.601,70.469,82.342,70.477z"/>
	<path fill="#54894E" d="M61.263,28.323c-0.094,0.428-0.44,0.23-0.684,0.26c-0.252,0.031-0.512,0.006-0.77,0.004
		C60.219,28.084,60.782,28.425,61.263,28.323z"/>
	<path fill="#54894E" d="M57.312,28.984c-0.249,0.519-0.711,0.167-1.063,0.258C56.516,28.799,56.954,29.059,57.312,28.984z"/>
	<path fill="#54894E" d="M59.557,28.604c-0.271,0.491-0.718,0.167-1.079,0.235C58.759,28.4,59.191,28.663,59.557,28.604z"/>
	<path fill="#434343" d="M62.586,68.646c-0.177-0.043-0.354-0.085-0.529-0.128c0.013-0.973-0.486-0.321-0.803-0.25l0.006,0.001
		c-0.226-0.554-0.704-0.152-1.042-0.276l-0.005-0.002c-0.341-0.503-0.78-0.828-1.426-0.785c-0.185,0.013-0.276,0.101-0.275,0.284
		l0.008-0.006c-0.766-0.074-0.832,0.431-0.822,0.996c-0.052,0.056-0.104,0.111-0.155,0.165c-0.145,0.018-0.224,0.1-0.239,0.244
		l-0.02,0.019c-0.148,0.018-0.23,0.101-0.245,0.249l-0.015,0.016c-0.151,0.017-0.234,0.1-0.247,0.253l-0.012,0.011
		c-0.157,0.014-0.24,0.099-0.253,0.255l-0.007,0.011c-0.161,0.013-0.243,0.099-0.254,0.258l-0.004,0.007
		c-0.164,0.011-0.248,0.097-0.256,0.262l-0.006,0.004c-0.164,0.01-0.251,0.095-0.258,0.262l-0.001,0.002
		c-0.17,0.008-0.256,0.098-0.257,0.268l0,0c-0.175,0.003-0.264,0.093-0.263,0.269l0.003-0.002c-0.183,0-0.268,0.094-0.265,0.273
		c-0.042,0.04-0.082,0.083-0.123,0.124c-0.184-0.002-0.275,0.086-0.271,0.273l0.007-0.007c-0.188-0.006-0.276,0.085-0.27,0.272
		l0.007-0.007c-0.188-0.008-0.278,0.084-0.268,0.271l0.009-0.005c-0.193-0.011-0.283,0.08-0.269,0.275c0,0,0.009-0.009,0.007-0.009
		c-0.221-0.021-0.435-0.04-0.597,0.17c-0.844,1.103-2.135,1.792-2.814,3.05c-0.084,0.155-0.229,0.335-0.47,0.309
		c-0.218-0.021-0.304-0.2-0.328-0.363c-0.093-0.655-0.551-0.705-1.064-0.683l-0.013-0.018c-0.014-0.149-0.094-0.231-0.244-0.249
		l-0.019-0.017c-0.015-0.148-0.097-0.23-0.244-0.247l-0.019-0.019c-0.017-0.145-0.097-0.228-0.242-0.247l-0.02-0.02
		c0.212-0.259,0.05-0.428-0.124-0.621c-0.54-0.597-1.128-1.161-1.573-1.822c-0.408-0.604-0.852-0.998-1.604-0.952
		c-0.043-0.093-0.088-0.186-0.133-0.278c-0.007-0.159-0.091-0.242-0.246-0.255l-0.013-0.016c-0.014-0.154-0.1-0.234-0.249-0.249
		l-0.014-0.017c-0.014-0.149-0.095-0.232-0.244-0.249c0,0-0.018-0.019-0.018-0.017c-0.016-0.149-0.098-0.231-0.244-0.247
		l-0.019-0.019c-0.016-0.145-0.097-0.229-0.243-0.246l-0.019-0.019c-0.019-0.136-0.087-0.223-0.231-0.233
		c-0.042-0.026-0.06-0.064-0.052-0.115c0.053-0.085,0.161-0.236,0.152-0.243c-0.448-0.359-0.68-0.994-1.346-1.079l0.008,0.006
		c-0.002-0.146-0.049-0.258-0.218-0.272c-0.189-0.014-0.288,0.071-0.294,0.263l0.003-0.003c-0.208,0.019-0.479-0.104-0.537,0.243
		c-0.076,0.011-0.151,0.02-0.226,0.028c-0.22,0.014-0.504-0.124-0.564,0.249h0c-0.23,0.056-0.562-0.159-0.657,0.249
		c-0.081,0.008-0.163,0.015-0.244,0.021c-0.352,0.105-0.825-0.282-1.069,0.261h-0.001c-0.108-0.006-0.247,0.027-0.321-0.024
		c-0.568-0.418-1.216-0.185-1.825-0.241c-0.297-0.027-0.375,0.151-0.362,0.406c-0.483-0.002-0.966-0.006-1.451-0.008
		c0.029-0.325-0.151-0.461-0.436-0.393c-0.305,0.072-0.795-0.295-0.883,0.342c-0.094-0.006-0.189-0.011-0.283-0.017
		c-0.128-0.1-0.275-0.065-0.418-0.057c-0.03,0.021-0.06,0.021-0.089-0.002c0.027-0.517-0.174-0.716-0.642-0.409
		c-0.185,0.123-0.359,0.123-0.549,0.135l0.002,0.002c-0.147-0.494-0.545-0.178-0.822-0.256c-0.076-0.009-0.154-0.016-0.23-0.024
		c-0.067-0.36-0.346-0.223-0.559-0.24c-0.077-0.007-0.154-0.018-0.231-0.025c-0.017-0.697-1.086-1.688-1.907-1.668
		c-0.688,0.016-1.166-0.202-1.422-0.853c-0.042-0.108-0.14-0.217-0.246-0.168c-0.595,0.272-0.608-0.154-0.638-0.53
		c-0.016-0.218-0.111-0.369-0.257-0.511c-0.39-0.385-0.775-0.774-1.163-1.162c-0.126-0.126-0.246-0.241-0.453-0.211
		c-0.565,0.078-0.687-0.221-0.563-0.696c0.065-0.247,0.038-0.35-0.267-0.352c-0.474-0.002-0.498-0.071-0.271-0.501
		c0.063-0.119,0.027-0.285-0.047-0.265c-0.506,0.132-0.387-0.354-0.55-0.484c-0.354-0.282-0.506-0.637-0.67-0.994
		c-0.363-0.794-0.662-1.615-1.022-2.41c-0.297-0.651-0.202-1.392-0.512-2.043c-0.117-0.246-0.105-0.599,0.238-0.806
		c0.309-0.186,0.271-0.417-0.008-0.617c-0.124-0.092-0.216-0.184-0.266-0.352c-0.259-0.869-0.411-1.757-0.529-2.652
		c-0.021-0.037-0.021-0.072,0.003-0.108c0.411,0.006,0.154,0.454,0.407,0.604c0.248-0.238,0.776-0.348,0.205-0.852
		c-0.117-0.103-0.429-0.719,0.315-0.748c0.235-0.009,0.325-0.315,0.07-0.554c-0.328-0.308-0.297-0.667-0.03-0.981
		c0.348-0.413,0.432-0.937,0.588-1.412c0.338-1.033,1.14-2.599,2.119-3.393c0.057-0.046,0.119-0.188,0.097-0.215
		c-0.368-0.43,0.07-0.519,0.284-0.718c0.278-0.259,0.566-0.517,0.649-0.902c0.211,0.047,0.158,0.351,0.367,0.279
		c0.206-0.072,0.33-0.31,0.3-0.472c-0.077-0.421,0.137-0.568,0.427-0.827c1.444-1.291,3.093-2.237,4.83-3.052
		c0.261-0.123,0.557-0.139,0.811,0.044c0.111,0.08,0.291,0.204,0.34,0.128c0.372-0.563,0.826-0.812,1.483-0.5
		c0.292-0.798,0.721-0.298,1.135-0.134c0.304,0.121,0.665,0.221,0.684-0.311c0.008-0.249,0.173-0.216,0.316-0.217
		c0.768-0.004,1.537-0.004,2.306,0.001c0.117,0.001,0.342,0,0.256,0.176c-0.243,0.49,0.153,0.332,0.333,0.34
		c0.254,0.013,0.5,0.028,0.747-0.154c0.217-0.159,0.579-0.261,0.708,0.119c0.131,0.39,0.261,0.298,0.503,0.12
		c0.106-0.079,0.304-0.097,0.438-0.062c0.55,0.146,1.153,0.295,1.62,0.506c1.105,0.499,2.464,0.661,3.181,1.852
		c0.018,0.029,0.072,0.051,0.11,0.051c0.718,0.005,1.103,0.579,1.612,0.94c0.157,0.112,0.148,0.264,0.158,0.454
		c0.028,0.468,0.373,0.814,0.781,0.887c0.656,0.117,0.695,0.088,0.52,0.652c-0.017,0.055-0.013,0.145,0.021,0.179
		c0.28,0.279,0.322,0.88,0.954,0.688c0.194-0.058,0.324,0.113,0.255,0.268c-0.238,0.529,0.214,0.473,0.542,0.576
		c-0.49,0.453-0.131,0.778,0.095,1.109c0.256,0.375,0.516,0.769,1.078,0.521c0.01,0.075,0.021,0.15,0.031,0.225
		c0.02,0.209-0.128,0.529,0.241,0.54c0.376,0.01,0.243-0.31,0.258-0.521l-0.007,0.007c0.528-0.054,0.536-0.65,0.894-0.86
		c0.205-0.118,0.547-0.167,0.501-0.421c-0.056-0.301-0.41-0.093-0.617-0.17c0.019-0.083,0.038-0.166,0.057-0.249
		c0.086-0.002,0.184,0.018,0.261-0.012c0.685-0.265,0.793-1.165,1.518-1.389c0.021-0.006,0.039-0.089,0.023-0.122
		c-0.173-0.409,0.159-0.581,0.376-0.803c0.46-0.467,0.921-0.932,1.385-1.395c0.187-0.185,0.398-0.355,0.328-0.665
		c0,0,0.008-0.006,0.01-0.005c0.69,0.231,1.033-0.4,1.474-0.673c1.714-1.063,3.419-2.083,5.525-2.084c0.073,0,0.161-0.07,0.214-0.13
		c0.345-0.388,0.743-0.304,1.114-0.092c0.268,0.152,0.454,0.155,0.585-0.125c0.129-0.273,0.352-0.285,0.601-0.283
		c0.635,0.007,1.271,0.005,1.902,0.001c0.227-0.001,0.424,0.025,0.603,0.194c0.395,0.37,1.484,0.235,1.86-0.215
		c0.085,0.008,0.169,0.016,0.254,0.022c0.028,0.18-0.076,0.478,0.182,0.488c0.402,0.016,0.712,0.263,1.102,0.329
		c1.025,0.173,1.988,0.585,2.874,1.126c0.31,0.189,0.542,0.283,0.835,0.041l0.011,0.007c0.077,0.621,0.56,0.836,1.012,1.159
		c0.97,0.696,1.809,1.529,2.599,2.454c0.745,0.869,1.335,1.812,1.905,2.763c0.986,1.65,1.518,3.492,1.876,5.376
		c0.045,0.233,0.171,0.344,0.397,0.357c0.005,0.176,0.012,0.352,0.019,0.527c-0.303-0.024-0.43,0.106-0.425,0.416
		c0.016,0.607,0.016,1.214,0,1.821c-0.008,0.325,0.164,0.415,0.44,0.41c-0.016,0.348-0.029,0.695-0.044,1.043
		c-0.672,0.209-0.48,0.872-0.628,1.316c-0.245,0.739-0.413,1.512-0.698,2.238c-0.298,0.757-0.668,1.485-1.021,2.218
		c-0.347,0.717-1.096,1.164-1.295,2.001c-0.082,0.342-0.431,0.724-0.765,0.749c-1.082,0.089-1.478,0.992-1.928,1.675
		c-0.425,0.643-0.967,0.968-1.587,1.237c-0.501,0.218-0.728,0.556-0.772,1.067c-0.084,0.016-0.167,0.033-0.25,0.05
		c-0.029-0.092-0.021-0.256-0.151-0.214c-0.213,0.065-0.09,0.279-0.126,0.426c-0.085,0.015-0.169,0.029-0.255,0.043
		c-0.038-0.202-0.058-0.414-0.341-0.509c0.026,0.269,0.049,0.497,0.069,0.723c-0.083,0.013-0.165,0.023-0.247,0.035
		c-0.21,0.02-0.487-0.106-0.543,0.249c-0.075,0.006-0.151,0.014-0.228,0.02c-0.197-0.013-0.404-0.042-0.431,0.244
		c-0.078,0.006-0.155,0.013-0.233,0.019c-0.243,0.046-0.588-0.183-0.688,0.25l-0.059,0.014l-0.059-0.007
		c-0.238-0.001-0.477-0.02-0.714,0c-0.232,0.019-0.553-0.135-0.619,0.272c-0.126,0.01-0.248,0.021-0.373,0.032
		c-0.129-0.208-0.221-0.188-0.284,0.041c-1.273,0.111-2.547,0.097-3.823,0.033c0.019-0.272-0.098-0.391-0.38-0.389
		c-0.254,0.003-0.428,0.057-0.412,0.354C62.847,68.62,62.716,68.631,62.586,68.646z M47.692,71.949
		c0.018,0.094,0.014,0.207,0.158,0.198c0.015,0,0.039-0.024,0.041-0.041c0.01-0.146-0.104-0.142-0.198-0.159
		c-0.018-0.096-0.016-0.207-0.16-0.2c-0.015,0.002-0.04,0.027-0.041,0.042C47.483,71.935,47.597,71.93,47.692,71.949z
		 M48.747,60.879c-0.193,0.01-0.268,0.119-0.249,0.303c-0.017,0.074-0.033,0.149-0.05,0.224c-0.173,0.018-0.232,0.124-0.214,0.284
		l0.008-0.009c-0.176,0-0.28,0.072-0.272,0.265c0.006,0.112,0.051,0.203,0.173,0.228c0.206,0.042,0.324-0.042,0.34-0.256
		c0.076,0,0.15,0.002,0.226,0.002c0.861,0,1.721,0,2.582-0.002c0.073,0,0.147,0,0.224-0.002c0.015,0.214,0.133,0.308,0.339,0.253
		c0.065-0.017,0.145-0.097,0.161-0.164c0.053-0.203-0.041-0.32-0.256-0.337c-0.034-0.082-0.071-0.164-0.107-0.244
		c-0.045-0.051-0.089-0.1-0.132-0.148c-0.015-0.033-0.02-0.069-0.015-0.104c0.014-0.181-0.063-0.284-0.252-0.293
		c-0.091-0.127-0.179-0.254-0.271-0.383c0.006-0.16-0.057-0.262-0.231-0.276c-0.012-0.079-0.025-0.156-0.038-0.234
		c0.014-0.168-0.046-0.278-0.228-0.292c-0.012-0.079-0.022-0.156-0.036-0.235c0.015-0.164-0.042-0.275-0.223-0.294
		c-0.011-0.085-0.021-0.17-0.032-0.254c-0.012-0.144-0.063-0.252-0.228-0.263c-0.188-0.013-0.285,0.074-0.294,0.261
		c0.005,0.086,0.009,0.174,0.014,0.261c-0.056,0.175-0.112,0.35-0.168,0.524c-0.187,0.016-0.246,0.129-0.229,0.3
		c-0.014,0.075-0.028,0.151-0.042,0.227c-0.171,0.015-0.236,0.112-0.227,0.276l0.003-0.006
		C48.742,60.488,48.744,60.683,48.747,60.879L48.747,60.879z M51.783,49.944c-0.008,0.215-0.015,0.43-0.021,0.645l-0.021-0.018
		c-0.184,0-0.209,0.125-0.211,0.263c0,0.939,0,1.879,0.004,2.819c0,0.14,0.033,0.262,0.209,0.267l0.022-0.019
		c0.047,0.459-0.17,0.969,0.256,1.357c-0.02,0.035-0.015,0.061,0.019,0.084c-0.034,0.776,0.21,1.545,0.501,2.193
		c0.685,1.542,1.676,2.917,2.819,4.179c1.043,1.152,2.304,2.021,3.647,2.74c1.394,0.748,2.865,1.344,4.491,1.41
		c1.229,0.05,2.456,0.049,3.685,0.007c0.854-0.028,1.713-0.151,2.482-0.461c2.622-1.052,5.01-2.441,6.681-4.851
		c0.85-1.224,1.729-2.403,2.067-3.885v0.003c0.403-0.165,0.199-0.53,0.265-0.807c0.105-0.294,0.135-0.598,0.126-0.907
		c0.188-0.042,0.208-0.187,0.221-0.343c0.113-1.542,0.133-3.081,0.006-4.621c-0.014-0.146,0.003-0.318-0.217-0.332
		c-0.036-0.847-0.208-1.638-0.509-2.454c-0.544-1.483-1.489-2.685-2.383-3.932c-0.782-1.096-1.917-1.846-2.964-2.636
		c-1.368-1.031-3.035-1.461-4.705-1.855c-1.744-0.411-3.515-0.436-5.22-0.125c-2.097,0.38-4.178,0.997-5.838,2.478
		c-0.717,0.637-1.576,1.113-2.168,1.886c-0.397,0.519-0.729,1.088-1.147,1.591c-1.09,1.31-1.622,2.839-1.866,4.495
		C51.589,49.298,51.833,49.662,51.783,49.944z M47.964,55.349l-0.002,0.005c0.444-0.321,0.208-0.79,0.262-1.196
		c0.004-0.074,0.008-0.149,0.012-0.224c0.054-0.035,0.153-0.065,0.157-0.106c0.115-1.133,0.11-2.263-0.01-3.393
		c-0.004-0.042-0.102-0.074-0.156-0.112l0.001,0.007c0.033-0.119,0.055-0.232-0.108-0.271c-0.22-2.046-0.857-3.917-2.092-5.606
		c-1.218-1.667-2.663-3.082-4.421-4.12c-1.911-1.128-4.019-1.674-6.255-1.823c-2.251-0.151-4.391,0.332-6.451,1.077
		c-1.667,0.604-2.978,1.865-4.273,3.064c-0.927,0.857-1.633,1.917-2.202,3.026c-0.468,0.913-1.09,1.801-1.112,2.898
		c-0.421,0.406-0.384,1.006-0.443,1.477c-0.35,2.811-0.098,5.556,1.264,8.118c0.535,1.007,1.049,2.04,1.825,2.872
		c0.807,0.867,1.568,1.792,2.628,2.407c0.466,0.271,0.989,0.514,1.343,0.963c0.009,0.096-0.01,0.224,0.129,0.226
		c0.041,0,0.084-0.111,0.125-0.171c0.251-0.088,0.308,0.186,0.477,0.265c1.493,0.683,3.029,1.146,4.688,1.168
		c1.806,0.021,3.61,0.061,5.378-0.396c0.039,0.064,0.076,0.185,0.118,0.187c0.146,0.005,0.126-0.127,0.137-0.223
		c0.186-0.369,0.599-0.331,0.9-0.48c1.714-0.858,3.428-1.71,4.639-3.276c0.246-0.316,0.521-0.598,0.806-0.881
		c0.764-0.764,1.435-1.625,1.713-2.714c0.133-0.103,0.138-0.244,0.125-0.392c0.309-0.075,0.248-0.32,0.247-0.536
		c0.01-0.075,0.02-0.149,0.029-0.225c0.344-0.075,0.23-0.348,0.243-0.565c0.007-0.073,0.016-0.143,0.024-0.215
		C48.12,56.002,47.905,55.635,47.964,55.349z M47.663,61.431c0.514-0.19,0.602-0.575,0.634-1.162
		c-0.41,0.349-0.543,0.688-0.635,1.245c0.049-0.112,0.031-0.131-0.03-0.102c-0.05,0.026-0.118,0.053-0.135,0.095
		c-0.029,0.067,0.024,0.12,0.092,0.094C47.635,61.583,47.661,61.517,47.663,61.431z M49.927,73.5
		c0.152,0.052,0.205-0.038,0.307-0.146c0.811-0.885,1.644-1.754,2.474-2.626c1.021-1.074,2.032-2.16,3.071-3.217
		c0.287-0.289,0.323-0.532,0.078-0.832c-1.53-1.867-3.406-3.009-5.92-2.801c-0.591-0.098-1.202-0.068-1.758,0.076
		c-1.453,0.377-2.675,1.21-3.754,2.229c-0.464,0.438-0.646,0.965-0.085,1.549c0.528,0.548,1.048,1.094,1.612,1.611
		c1.092,0.999,2.04,2.154,3.081,3.209C49.339,72.861,49.471,73.338,49.927,73.5z M48.667,60.039
		c0.438-0.111,0.359-0.583,0.586-0.848c0.056-0.063-0.015-0.264-0.135-0.225c-0.401,0.129-0.463,0.53-0.605,0.857
		C48.464,59.935,48.527,60.031,48.667,60.039z M51.489,59.812c-0.087-0.163-0.097-0.423-0.356-0.455
		c-0.141-0.018-0.141,0.134-0.137,0.238c0.01,0.214,0.137,0.365,0.327,0.43C51.45,60.07,51.502,59.957,51.489,59.812z
		 M55.219,70.235c-0.497,0.076-0.596,0.397-0.75,0.653c-0.005,0.011,0.083,0.109,0.125,0.106c0.304-0.017,0.269-0.362,0.464-0.494
		C55.104,70.473,55.121,70.401,55.219,70.235z M56.077,69.438c0.204-0.174,0.434-0.243,0.405-0.517
		c-0.004-0.033-0.116-0.095-0.145-0.082C56.145,68.947,55.953,69.066,56.077,69.438z M54.973,69.209
		c-0.059,0.056-0.121,0.085-0.13,0.127c-0.012,0.051,0.009,0.14,0.047,0.159c0.089,0.05,0.156-0.004,0.157-0.101
		C55.047,69.342,55.006,69.289,54.973,69.209z M48.974,63.036c-0.017,0.038-0.053,0.082-0.043,0.108
		c0.011,0.025,0.068,0.034,0.104,0.052c0.016-0.038,0.053-0.083,0.042-0.107C49.067,63.061,49.01,63.054,48.974,63.036z"/>
	<path fill="#434443" d="M49.651,45.327c-0.563,0.249-0.823-0.146-1.078-0.521c-0.226-0.333-0.584-0.657-0.095-1.11
		c-0.327-0.102-0.78-0.047-0.542-0.576c0.069-0.154-0.061-0.326-0.255-0.268c-0.632,0.192-0.674-0.409-0.954-0.688
		c-0.034-0.035-0.038-0.125-0.021-0.179c0.175-0.564,0.136-0.536-0.52-0.652c-0.408-0.072-0.753-0.419-0.781-0.887
		c-0.012-0.189-0.001-0.34-0.159-0.454c-0.508-0.361-0.893-0.935-1.612-0.94c-0.037,0-0.093-0.021-0.11-0.05
		c-0.716-1.19-2.076-1.353-3.181-1.852c-0.465-0.21-1.07-0.359-1.62-0.505c-0.134-0.037-0.333-0.018-0.438,0.062
		c-0.242,0.179-0.372,0.27-0.503-0.12c-0.129-0.381-0.491-0.278-0.708-0.119c-0.246,0.183-0.493,0.167-0.747,0.154
		c-0.18-0.009-0.576,0.15-0.333-0.34c0.086-0.175-0.139-0.174-0.256-0.175c-0.768-0.006-1.537-0.006-2.305-0.001
		c-0.143,0.001-0.309-0.033-0.316,0.216c-0.019,0.532-0.379,0.433-0.684,0.311c-0.415-0.165-0.842-0.664-1.135,0.134
		c-0.656-0.312-1.11-0.063-1.483,0.5c-0.049,0.076-0.228-0.048-0.34-0.128c-0.254-0.184-0.55-0.167-0.811-0.044
		c-1.736,0.815-3.385,1.762-4.83,3.052c-0.291,0.26-0.503,0.407-0.427,0.828c0.029,0.163-0.095,0.401-0.3,0.471
		c-0.208,0.073-0.155-0.23-0.367-0.279c-0.083,0.385-0.372,0.643-0.649,0.902c-0.214,0.2-0.652,0.287-0.284,0.718
		c0.022,0.027-0.04,0.169-0.096,0.215c-0.979,0.794-1.782,2.359-2.12,3.393c-0.156,0.475-0.24,0.999-0.588,1.412
		c-0.267,0.315-0.297,0.673,0.03,0.981c0.255,0.24,0.165,0.544-0.069,0.553c-0.746,0.029-0.434,0.646-0.315,0.749
		c0.57,0.503,0.042,0.613-0.205,0.851c-0.254-0.151,0.003-0.598-0.407-0.604c0.003-0.303,0.007-0.607,0.01-0.91
		c0.434-0.372,0.209-0.876,0.274-1.324c0.446-1.606,1.034-3.146,2.058-4.486c0.667-1.528,1.986-2.541,3.032-3.764
		c0.536-0.628,1.391-0.972,2.045-1.512c1.41-1.163,3.132-1.634,4.81-2.146c1.963-0.598,4.016-0.789,6.061-0.563
		c1.814,0.201,3.577,0.752,5.242,1.463c0.988,0.421,1.999,0.923,2.818,1.725c0.679,0.663,1.641,1.021,2.229,1.8
		c1.084,1.437,2.368,2.738,3.052,4.449C49.662,45.152,49.656,45.24,49.651,45.327z"/>
	<path fill="#434443" d="M73.126,66.922c0.044-0.511,0.271-0.85,0.771-1.067c0.621-0.27,1.164-0.595,1.588-1.237
		c0.449-0.683,0.846-1.585,1.928-1.675c0.334-0.026,0.684-0.407,0.764-0.749c0.2-0.837,0.95-1.283,1.295-2.001
		c0.354-0.733,0.725-1.463,1.022-2.218c0.285-0.727,0.453-1.499,0.698-2.239c0.147-0.443-0.044-1.106,0.627-1.315
		c-0.234,1.653-0.516,3.279-1.253,4.818c-0.667,1.394-1.71,2.521-2.479,3.837c-0.229,0.39-0.713,0.617-1.014,0.978
		C75.998,65.346,74.544,66.107,73.126,66.922z"/>
	<path fill="#434443" d="M68.786,36.08c-0.376,0.45-1.466,0.585-1.86,0.215c-0.179-0.168-0.377-0.194-0.603-0.194
		c-0.633,0.004-1.268,0.006-1.903,0c-0.249-0.003-0.472,0.009-0.601,0.282c-0.13,0.281-0.316,0.279-0.585,0.126
		c-0.37-0.212-0.769-0.297-1.113,0.092c-0.055,0.061-0.142,0.13-0.215,0.13c-2.106,0.001-3.811,1.021-5.524,2.085
		c-0.44,0.273-0.783,0.904-1.474,0.673c0.285-0.723,1.025-0.948,1.576-1.351c1.321-0.97,2.895-1.484,4.437-1.957
		c2.047-0.628,4.191-0.772,6.321-0.531C67.731,35.704,68.359,35.636,68.786,36.08z"/>
	<path fill="#434443" d="M81.831,50.204c-0.228-0.014-0.354-0.125-0.398-0.357c-0.357-1.884-0.888-3.727-1.875-5.376
		c-0.571-0.951-1.159-1.894-1.904-2.763c-0.79-0.924-1.63-1.758-2.599-2.454c-0.453-0.323-0.937-0.538-1.012-1.158
		c2.049,1.134,3.671,2.728,4.992,4.643c0.448,0.65,0.896,1.306,1.271,1.997c0.628,1.152,1.208,2.334,1.254,3.686
		C81.58,49.029,81.956,49.577,81.831,50.204z"/>
	<path fill="#434443" d="M54.898,39.492c0.069,0.31-0.142,0.479-0.329,0.665c-0.463,0.463-0.924,0.929-1.384,1.395
		c-0.218,0.222-0.549,0.394-0.376,0.803c0.015,0.033-0.004,0.116-0.023,0.123c-0.726,0.224-0.835,1.124-1.518,1.389
		c-0.078,0.029-0.176,0.01-0.262,0.011c0.939-1.619,1.987-3.148,3.532-4.268C54.653,39.529,54.766,39.495,54.898,39.492z"/>
	<path fill="#434443" d="M74.031,38.087c-0.291,0.242-0.524,0.149-0.834-0.041c-0.886-0.542-1.848-0.954-2.874-1.126
		c-0.391-0.066-0.7-0.313-1.103-0.329c-0.257-0.011-0.152-0.31-0.181-0.489c0.731-0.051,1.365,0.258,2.021,0.52
		c0.944,0.379,1.94,0.627,2.792,1.221C73.953,37.913,74.008,37.978,74.031,38.087z"/>
	<path fill="#434443" d="M81.865,53.378c-0.278,0.004-0.448-0.084-0.44-0.411c0.017-0.606,0.017-1.214,0-1.819
		c-0.007-0.311,0.121-0.441,0.424-0.416c0.315,0.688,0.21,1.42,0.219,2.141C82.067,53.067,82.073,53.267,81.865,53.378z"/>
	<path fill="#434443" d="M50.95,44.127c0.207,0.077,0.563-0.131,0.618,0.17c0.047,0.255-0.297,0.302-0.5,0.42
		c-0.36,0.21-0.368,0.806-0.896,0.86C50.153,44.944,50.449,44.481,50.95,44.127z"/>
	<path fill="#434443" d="M68.25,68.534c0.066-0.406,0.388-0.253,0.619-0.271c0.237-0.02,0.476-0.003,0.714,0
		C69.216,68.728,68.693,68.443,68.25,68.534z"/>
	<path fill="#434443" d="M62.978,68.606c-0.017-0.298,0.158-0.35,0.412-0.354c0.281-0.001,0.398,0.117,0.38,0.39
		C63.505,68.629,63.242,68.62,62.978,68.606z"/>
	<path fill="#434443" d="M50.181,45.57c-0.015,0.212,0.118,0.531-0.258,0.521c-0.369-0.011-0.221-0.331-0.241-0.54
		C49.849,45.558,50.015,45.564,50.181,45.57z"/>
	<path fill="#434443" d="M72.072,67.438c-0.021-0.227-0.043-0.454-0.069-0.724c0.282,0.096,0.303,0.31,0.341,0.511
		C72.335,67.4,72.236,67.461,72.072,67.438z"/>
	<path fill="#434443" d="M69.7,68.257c0.102-0.435,0.447-0.205,0.689-0.251C70.264,68.373,69.945,68.215,69.7,68.257z"/>
	<path fill="#434443" d="M72.598,67.183c0.035-0.146-0.088-0.359,0.126-0.427c0.13-0.041,0.122,0.124,0.151,0.215
		C72.869,67.152,72.759,67.202,72.598,67.183z"/>
	<path fill="#434443" d="M71.281,67.724c0.057-0.356,0.333-0.23,0.544-0.25C71.747,67.784,71.498,67.715,71.281,67.724z"/>
	<path fill="#434443" d="M70.624,67.988c0.025-0.287,0.233-0.257,0.43-0.244C71.004,67.992,70.826,68.012,70.624,67.988z"/>
	<path fill="#434443" d="M67.592,68.608c0.063-0.229,0.156-0.249,0.284-0.042C67.781,68.58,67.686,68.595,67.592,68.608z"/>
	<path fill="#61BB56" d="M29.374,67.981c0.076,0.009,0.153,0.018,0.231,0.024c0.175,0.402,0.541,0.19,0.82,0.257l-0.001-0.003
		c0.314,0.455,0.794,0.182,1.19,0.274c0.029,0.023,0.059,0.023,0.09,0.002c0.13,0.088,0.268,0.106,0.417,0.057
		c0.094,0.006,0.188,0.011,0.283,0.017c0.44,0.019,0.88,0.034,1.319,0.051c0.483,0.004,0.966,0.008,1.451,0.009
		c0.663-0.005,1.324-0.012,1.986-0.017c-0.211,0.405-0.601,0.589-0.972,0.805c-0.881,0.516-1.711,1.101-2.535,1.707
		c-0.554,0.407-1.11,0.808-1.623,1.266c-1.04,0.927-2.175,1.75-2.967,2.937c-0.298,0.446-0.634,0.883-0.986,1.288
		c-1.194,1.373-2.07,2.938-2.898,4.547c-0.744,1.44-1.222,2.985-1.82,4.481c-0.14,0.351-0.031,0.783-0.177,1.158
		c-1.469,0-2.939,0-4.409,0c-0.861,0-0.862-0.002-0.862-0.845c0-9.256,0-18.512,0-27.766c0-0.133-0.003-0.265,0.002-0.396
		c0.005-0.125-0.025-0.3,0.151-0.312c0.148-0.011,0.186,0.141,0.239,0.268c0.27,0.653,0.546,1.306,0.834,1.953
		c0.148,0.331,0.354,0.543,0.71,0.211c0.388,0.654,0.719,1.354,1.174,1.959c1.023,1.36,2.183,2.601,3.559,3.62
		c0.479,0.355,1.016,0.615,1.508,0.955c0.766,0.524,1.614,0.921,2.496,1.227c0.076,0.01,0.154,0.019,0.231,0.027
		C28.897,68.065,29.157,67.972,29.374,67.981z"/>
	<path fill="#69BD59" d="M19.845,59.954c-0.356,0.332-0.563,0.12-0.71-0.211c-0.287-0.647-0.563-1.299-0.834-1.953
		c-0.053-0.126-0.09-0.278-0.239-0.269c-0.177,0.014-0.146,0.188-0.15,0.313c-0.007,0.132-0.003,0.263-0.003,0.395
		c0,9.256,0,18.512,0,27.767c0,0.843,0.001,0.845,0.862,0.845c1.471,0,2.94,0,4.409,0c-0.001,0.088-0.003,0.178-0.004,0.266
		c-1.93,0-3.861-0.002-5.792-0.004C17.382,67.388,17.38,47.67,17.38,27.955c0-0.131,0.016-0.263,0.025-0.395
		c0.168,0.002,0.336,0.003,0.504,0.005c0.033,0.191,0.165,0.234,0.335,0.234c0.875-0.003,1.75-0.003,2.625,0
		c0.172,0,0.301-0.048,0.332-0.239c3.208,0.002,6.416,0.003,9.624,0.004c0.071,0.321,0.331,0.228,0.532,0.232
		c0.525,0.009,1.052,0.001,1.578,0.001c1.573-0.137,3.11,0.274,4.677,0.327c1.107,0.038,2.228,0.387,3.361,0.492
		c-0.003,0.186-0.048,0.432-0.268,0.345c-0.559-0.221-1.195,0.078-1.722-0.289c-0.068-0.047-0.168-0.085-0.246-0.075
		c-1.191,0.168-2.34-0.194-3.507-0.294c-5.487-0.47-10.981-0.136-16.47-0.24c-0.849-0.017-0.85-0.002-0.85,0.856
		c0,5.729,0,11.458,0,17.187c0,0.132-0.002,0.264,0.001,0.396c0.005,0.149-0.025,0.347,0.181,0.365
		c0.221,0.018,0.17-0.194,0.219-0.331c0.362-1.023,0.916-1.949,1.453-2.886c0.229-0.402,0.408-0.098,0.615-0.039
		c-1.024,1.34-1.612,2.88-2.058,4.487c-0.573,0.342-0.16,0.887-0.273,1.324c-0.003,0.304-0.007,0.607-0.011,0.91
		c-0.024,0.036-0.025,0.071-0.004,0.108c-0.024,0.083-0.065,0.168-0.067,0.251c-0.031,2.001-0.094,3.988,0.543,5.946
		C18.879,57.783,19.291,58.894,19.845,59.954z"/>
	<path fill="#434443" d="M48.502,74.973c0.515-0.021,0.972,0.027,1.064,0.684c0.023,0.164,0.11,0.342,0.328,0.362
		c0.241,0.026,0.386-0.153,0.47-0.307c0.68-1.26,1.97-1.948,2.814-3.051c0.162-0.209,0.376-0.191,0.597-0.169
		c-0.819,1.222-1.932,2.188-2.924,3.259c-0.282,0.303-0.5,0.698-0.925,0.857C49.439,76.074,48.905,75.58,48.502,74.973z"/>
	<path fill="#434443" d="M44.402,70.762c0.752-0.045,1.194,0.348,1.604,0.952c0.446,0.661,1.034,1.226,1.573,1.822
		c0.174,0.193,0.337,0.362,0.125,0.622c-0.75-0.778-1.526-1.532-2.238-2.342C45.132,71.437,44.575,71.293,44.402,70.762z"/>
	<path fill="#434443" d="M37.16,68.652c-0.663,0.005-1.324,0.01-1.987,0.016c-0.013-0.255,0.064-0.434,0.362-0.406
		c0.609,0.056,1.257-0.177,1.825,0.241c0.074,0.054,0.212,0.019,0.321,0.024C37.505,68.568,37.333,68.61,37.16,68.652z"/>
	<path fill="#434443" d="M41.479,67.479c0.666,0.086,0.899,0.721,1.346,1.079c0.009,0.009-0.099,0.16-0.152,0.246
		C42.085,68.534,41.771,68.019,41.479,67.479z"/>
	<path fill="#434443" d="M37.681,68.526c0.244-0.543,0.717-0.156,1.069-0.261C38.471,68.669,38.043,68.467,37.681,68.526z"/>
	<path fill="#434443" d="M38.994,68.244c0.096-0.408,0.427-0.192,0.657-0.25C39.512,68.288,39.233,68.215,38.994,68.244z"/>
	<path fill="#434443" d="M40.976,67.476c0.006-0.192,0.105-0.276,0.294-0.262c0.168,0.014,0.214,0.126,0.218,0.271
		C41.316,67.482,41.146,67.479,40.976,67.476z"/>
	<path fill="#434443" d="M40.443,67.717c0.057-0.348,0.329-0.225,0.537-0.243C40.905,67.784,40.658,67.715,40.443,67.717z"/>
	<path fill="#434443" d="M39.653,67.994c0.061-0.373,0.345-0.235,0.564-0.248C40.14,68.08,39.869,67.976,39.653,67.994z"/>
	<path fill="#434443" d="M42.727,68.918c0.145,0.011,0.212,0.097,0.231,0.233C42.813,69.14,42.715,69.081,42.727,68.918z"/>
	<path fill="#434443" d="M42.977,69.171c0.146,0.019,0.227,0.101,0.243,0.245C43.066,69.407,42.983,69.327,42.977,69.171z"/>
	<path fill="#434443" d="M43.239,69.436c0.146,0.017,0.228,0.098,0.244,0.247C43.329,69.67,43.246,69.59,43.239,69.436z"/>
	<path fill="#434443" d="M43.501,69.7c0.149,0.017,0.23,0.099,0.244,0.249C43.595,69.933,43.51,69.853,43.501,69.7z"/>
	<path fill="#434443" d="M43.759,69.965c0.15,0.016,0.236,0.095,0.25,0.248C43.854,70.202,43.754,70.136,43.759,69.965z"/>
	<path fill="#434443" d="M44.021,70.229c0.156,0.013,0.24,0.097,0.246,0.255C44.104,70.478,44.021,70.394,44.021,70.229z"/>
	<path fill="#434443" d="M47.722,74.177c0.146,0.02,0.226,0.103,0.243,0.247C47.81,74.415,47.728,74.335,47.722,74.177z"/>
	<path fill="#434443" d="M47.983,74.443c0.147,0.018,0.229,0.1,0.245,0.247C48.068,74.684,47.994,74.595,47.983,74.443z"/>
	<path fill="#434443" d="M48.245,74.708c0.149,0.018,0.23,0.099,0.244,0.248C48.329,74.951,48.245,74.87,48.245,74.708z"/>
	<path fill="#434443" d="M58.512,67.49c0-0.184,0.091-0.272,0.275-0.283c0.646-0.044,1.085,0.28,1.427,0.783
		c-0.44,0.05-0.785-0.225-1.143-0.396C58.871,67.498,58.697,67.517,58.512,67.49z"/>
	<path fill="#434443" d="M57.697,68.481c-0.01-0.567,0.057-1.071,0.823-0.998C58.304,67.864,58.051,68.215,57.697,68.481z"/>
	<path fill="#434443" d="M61.254,68.268c0.316-0.071,0.815-0.723,0.803,0.25C61.785,68.454,61.421,68.672,61.254,68.268z"/>
	<path fill="#434443" d="M60.218,67.992c0.338,0.124,0.816-0.277,1.042,0.277C60.909,68.188,60.477,68.415,60.218,67.992z"/>
	<path fill="#434443" d="M57.039,69.156c0.016-0.147,0.097-0.231,0.245-0.248C57.279,69.066,57.195,69.146,57.039,69.156z"/>
	<path fill="#434443" d="M56.778,69.426c0.013-0.153,0.095-0.237,0.246-0.254C57.026,69.338,56.94,69.42,56.778,69.426z"/>
	<path fill="#434443" d="M56.514,69.691c0.014-0.156,0.096-0.242,0.253-0.255C56.763,69.6,56.677,69.684,56.514,69.691z"/>
	<path fill="#434443" d="M55.991,70.228c0.008-0.165,0.093-0.251,0.256-0.262C56.246,70.136,56.158,70.222,55.991,70.228z"/>
	<path fill="#434443" d="M57.303,68.889c0.017-0.143,0.095-0.227,0.24-0.243C57.544,68.807,57.457,68.882,57.303,68.889z"/>
	<path fill="#434443" d="M55.728,70.493c0.007-0.167,0.094-0.252,0.258-0.262C55.982,70.399,55.897,70.488,55.728,70.493z"/>
	<path fill="#434443" d="M55.47,70.763c0.001-0.17,0.087-0.26,0.257-0.268C55.727,70.668,55.645,70.762,55.47,70.763z"/>
	<path fill="#434443" d="M55.207,71.031c-0.001-0.176,0.088-0.266,0.263-0.269C55.471,70.939,55.381,71.027,55.207,71.031z"/>
	<path fill="#434443" d="M54.945,71.302c-0.003-0.179,0.082-0.272,0.265-0.273C55.212,71.206,55.123,71.298,54.945,71.302z"/>
	<path fill="#434443" d="M54.552,71.7c-0.005-0.188,0.087-0.276,0.271-0.274C54.818,71.601,54.738,71.701,54.552,71.7z"/>
	<path fill="#434443" d="M54.289,71.965c-0.007-0.187,0.082-0.278,0.27-0.271C54.563,71.877,54.474,71.966,54.289,71.965z"/>
	<path fill="#434443" d="M54.029,72.229c-0.011-0.188,0.079-0.279,0.267-0.271C54.3,72.137,54.216,72.234,54.029,72.229z"/>
	<path fill="#434443" d="M53.769,72.499c-0.016-0.195,0.075-0.285,0.269-0.275C54.042,72.408,53.958,72.505,53.769,72.499z"/>
	<path fill="#434443" d="M56.253,69.961c0.01-0.16,0.093-0.246,0.254-0.26C56.505,69.87,56.418,69.954,56.253,69.961z"/>
	<path fill="#61BB56" d="M21.201,27.561c-0.031,0.191-0.159,0.239-0.332,0.239c-0.874-0.003-1.749-0.003-2.625,0
		c-0.17,0-0.302-0.043-0.335-0.234C19.007,27.564,20.105,27.563,21.201,27.561z"/>
	<path fill="#F9F8F8" d="M47.445,56.963c-0.01,0.075-0.02,0.149-0.029,0.225c-0.353,0.054-0.237,0.324-0.247,0.536
		c0.013,0.147,0.007,0.29-0.126,0.392c-0.371-0.064-0.322-0.344-0.221-0.556c0.604-1.262,0.856-2.641,1.08-3.984
		c0.208-1.25,0.209-2.583-0.336-3.863c-0.125,0.162-0.301,0.294-0.337,0.458c-0.169,0.754-0.5,1.431-0.995,2.006
		c-0.477,0.558-0.593,1.176-0.521,1.869c0.02,0.191-0.028,0.353-0.262,0.377c0.002-0.284,0.038-0.573-0.003-0.851
		c-0.044-0.292,0.21-0.669-0.212-0.868c0-0.13,0-0.258,0-0.386c0.356-0.412,0.375-0.81-0.043-1.192
		c-0.328-0.994-0.516-2.067-1.018-2.964c-0.692-1.235-1.716-2.253-2.889-3.077c-0.635-0.445-1.429-0.557-2.122-0.875
		c-0.867-0.398-1.765-0.519-2.69-0.574c-0.129-0.008-0.326-0.089-0.358,0.154c-0.02,0.15-0.038,0.284,0.128,0.398
		c0.271,0.184,0.276,0.519,0.396,0.794c0.344,0.795,0.221,1.625,0.234,2.447l0.002-0.007c-0.349,0.122-0.229,0.425-0.262,0.669
		l0.001-0.004c-0.015,0.01-0.041,0.017-0.043,0.028c-0.004,0.03,0.002,0.061,0.003,0.092c-0.032,0.134-0.061,0.267-0.091,0.4
		c-0.172,0.018-0.252,0.11-0.234,0.285c-1.448,1.655-3.199,2.183-5.297,1.438c-1.064-0.378-1.83-1.083-2.295-2.05
		c-0.623,0.541-0.697,1.388-0.947,2.11c-0.426,1.232-0.438,2.542-0.126,3.861c0.12,0.512,0.423,0.995,0.367,1.55
		c-0.092,0.421,0.067,0.706,0.464,0.864c0.012,0.084,0.024,0.171,0.036,0.258c-0.064,0.319-0.18,0.189-0.339,0.057
		c-0.333-0.276-0.549-0.682-0.978-0.845c-0.883-0.338-1.563-1.001-2.22-1.612c-1.16-1.077-2.134-2.361-2.736-3.838
		c-0.287-0.703-1.082-1.208-0.864-2.111c0.021-1.097,0.644-1.986,1.112-2.898c0.57-1.109,1.275-2.168,2.202-3.026
		c1.294-1.2,2.607-2.46,4.272-3.064c2.06-0.747,4.2-1.228,6.451-1.077c2.236,0.149,4.345,0.696,6.256,1.823
		c1.759,1.039,3.204,2.454,4.421,4.12c1.235,1.689,1.872,3.56,2.092,5.606c-0.241,0.201-0.087,0.243,0.108,0.271l0-0.007
		c0.001,1.203,0.005,2.407,0.008,3.611c-0.003,0.073-0.007,0.148-0.012,0.223c-0.532,0.302-0.169,0.798-0.262,1.196l0.002-0.005
		c-0.496,0.154-0.205,0.545-0.252,0.834c-0.008,0.071-0.017,0.142-0.024,0.215C47.315,56.461,47.445,56.738,47.445,56.963z"/>
	<path fill="#F9F8F8" d="M52.038,55.343C52.006,55.32,52,55.294,52.02,55.259c0.009-0.233,0.041-0.468,0.017-0.695
		c-0.027-0.239,0.164-0.586-0.271-0.662l-0.023,0.019c0.05-1.117,0.057-2.233-0.002-3.349l0.021,0.018
		c0.461-0.081,0.223-0.432,0.265-0.675c-0.005-0.265-0.009-0.529-0.013-0.794c0.242-1.656,0.776-3.184,1.866-4.495
		c0.416-0.501,0.751-1.072,1.147-1.59c0.59-0.774,1.452-1.248,2.167-1.886c1.659-1.481,3.743-2.098,5.839-2.479
		c1.705-0.311,3.475-0.285,5.221,0.125c1.669,0.394,3.337,0.824,4.703,1.855c1.048,0.791,2.182,1.541,2.964,2.636
		c0.894,1.247,1.839,2.448,2.384,3.931c0.3,0.816,0.473,1.607,0.508,2.454c-0.49-0.085-0.626,0.179-0.778,0.611
		c-0.481,1.371-1.524,2.404-2.287,3.609c-0.113,0.18-0.292,0.329-0.464,0.461c-0.996,0.752-1.997,1.495-3.001,2.237
		c-0.117,0.087-0.193,0.298-0.355,0.239c-0.211-0.074-0.07-0.313-0.135-0.464c0.026-0.148,0.04-0.298,0.08-0.442
		c0.224-0.81,0.643-1.568,0.698-2.414c0.093-1.407-0.049-2.751-0.632-4.102c-0.515-1.192-1.105-2.281-1.98-3.221
		c-0.539-0.577-1.337-0.808-1.88-1.381c-0.048-0.095-0.129-0.045-0.197-0.049c-0.097-0.027-0.195-0.055-0.292-0.083
		c-0.12-0.2-0.295-0.291-0.527-0.252l-0.017-0.003c-0.216-0.209-0.468-0.309-0.771-0.266l-0.008-0.001
		c-0.249-0.283-0.58-0.271-0.912-0.257c-0.084-0.005-0.167-0.011-0.249-0.016c-0.427-0.395-0.962-0.15-1.44-0.243
		c-0.114-0.022-0.287-0.043-0.351,0.088c-0.092,0.192,0.042,0.325,0.193,0.43c0.049,0.086,0.099,0.17,0.149,0.257
		c-0.07,0.312,0.188,0.333,0.369,0.424c0.01,0.079,0.02,0.157,0.031,0.235c0.139,0.923,0.147,1.846-0.021,2.767l0,0
		c-0.184,0.13-0.279,0.302-0.252,0.532l-0.004,0.009c-0.163,0.132-0.308,0.274-0.278,0.51l0.004-0.002
		c-0.165,0.019-0.252,0.107-0.244,0.277l-0.009,0.011c-0.123,0.039-0.226,0.096-0.231,0.246c-0.057,0.099-0.113,0.198-0.17,0.298
		c-0.162-0.008-0.218,0.099-0.247,0.233c-0.096,0.038-0.19,0.076-0.286,0.115c-0.223-0.003-0.428,0.028-0.521,0.276l-0.002,0.001
		c-0.29-0.01-0.565,0.035-0.772,0.27l-0.012,0.001c-0.751-0.001-1.497-0.005-2.247-0.008H58.76c-0.192-0.29-0.495-0.262-0.782-0.275
		l0.006,0.002c-0.023-0.157-0.104-0.249-0.277-0.221c-0.686-0.245-1.174-0.712-1.419-1.388c-0.082-0.226-0.196-0.438-0.376-0.456
		c-0.229-0.024-0.35,0.267-0.396,0.444c-0.212,0.813-0.707,1.545-0.7,2.419c-0.408,0.075-0.259,0.403-0.266,0.635
		c-0.018,0.769-0.006,1.539-0.006,2.309c-0.088,0.021-0.176,0.043-0.264,0.064c0.29-1.9-1.398-2.823-1.902-4.336
		c-0.019,0.788-0.361,1.481-0.369,2.258c-0.011,1.115,0.466,2.17,0.297,3.286C52.216,55.343,52.129,55.343,52.038,55.343z"/>
	<path fill="#E5E5E4" d="M52.3,55.328c0.174-1.101-0.303-2.156-0.292-3.272c0.008-0.774,0.353-1.468,0.369-2.256
		c0.502,1.513,2.192,2.435,1.902,4.334c0.088-0.021,0.176-0.042,0.264-0.063c0-0.769-0.012-1.539,0.006-2.309
		c0.007-0.231-0.143-0.559,0.266-0.636c-0.003,0.701-0.029,1.402-0.005,2.102c0.021,0.612,0.004,1.251,0.173,1.827
		c0.503,1.708,1.584,3.096,2.851,4.277c1.336,1.249,3.063,1.828,4.858,2.03c2.133,0.241,4.162-0.244,5.939-1.453
		c0.979-0.664,1.938-1.398,2.474-2.557c0.157-0.333,0.298-0.773,0.685-0.991c0.064,0.154-0.075,0.391,0.134,0.465
		c0.164,0.059,0.24-0.152,0.356-0.239c1.004-0.741,2.005-1.484,3.001-2.237c0.173-0.13,0.352-0.279,0.465-0.461
		c0.762-1.206,1.805-2.24,2.287-3.609c0.151-0.431,0.288-0.696,0.777-0.61c0.219,0.013,0.205,0.185,0.217,0.332
		c0.128,1.54,0.108,3.079-0.005,4.621c-0.013,0.156-0.033,0.301-0.221,0.343c-0.046-0.131,0.025-0.324-0.173-0.375
		c-0.129-0.031-0.225,0.057-0.213,0.174c0.042,0.462-0.162,0.866-0.266,1.295c-0.056,0.218-0.125,0.54,0.261,0.615
		c-0.338,1.483-1.219,2.663-2.066,3.886c-1.671,2.409-4.059,3.8-6.681,4.851c-0.771,0.309-1.629,0.433-2.483,0.46
		c-1.229,0.042-2.455,0.045-3.686-0.006c-1.626-0.065-3.098-0.662-4.489-1.41c-1.344-0.72-2.604-1.587-3.648-2.739
		c-1.144-1.262-2.135-2.639-2.82-4.18c-0.289-0.648-0.533-1.418-0.499-2.193C52.129,55.343,52.216,55.343,52.3,55.328
		c0.035,0.145-0.055,0.3,0.105,0.444C52.438,55.613,52.457,55.493,52.3,55.328z M78.694,51.517c0.021,0,0.043,0,0.064,0
		c0-0.437,0-0.872,0-1.31c-0.021,0-0.044,0-0.064,0C78.694,50.645,78.694,51.08,78.694,51.517z M78.698,54.014
		c0.019,0,0.038,0.001,0.057,0.001c0-0.389,0-0.777,0-1.165c-0.019,0-0.038,0-0.057-0.002
		C78.698,53.237,78.698,53.626,78.698,54.014z"/>
	<path fill="#E5E5E4" d="M45.45,54.422c0.234-0.024,0.282-0.187,0.262-0.378c-0.073-0.692,0.044-1.313,0.521-1.868
		c0.496-0.576,0.826-1.253,0.995-2.006c0.037-0.164,0.213-0.297,0.337-0.458c0.545,1.279,0.544,2.614,0.336,3.863
		c-0.224,1.345-0.477,2.722-1.08,3.985c-0.101,0.211-0.149,0.489,0.221,0.554c-0.278,1.09-0.949,1.951-1.713,2.714
		c-0.284,0.284-0.559,0.565-0.805,0.882c-1.21,1.565-2.924,2.417-4.639,3.277c-0.301,0.149-0.714,0.109-0.9,0.479
		c-0.085,0.013-0.169,0.025-0.254,0.038c-1.768,0.456-3.572,0.416-5.378,0.395c-1.659-0.021-3.196-0.485-4.688-1.167
		c-0.169-0.08-0.227-0.354-0.477-0.265c-0.084-0.02-0.169-0.039-0.255-0.056c-0.354-0.448-0.876-0.693-1.343-0.963
		c-1.061-0.616-1.821-1.541-2.628-2.406c-0.776-0.832-1.291-1.865-1.825-2.873c-1.362-2.562-1.614-5.307-1.264-8.118
		c0.059-0.471,0.021-1.073,0.443-1.477c-0.218,0.903,0.576,1.408,0.864,2.111c0.604,1.476,1.577,2.759,2.736,3.836
		c0.657,0.612,1.337,1.275,2.22,1.613c0.429,0.164,0.646,0.569,0.978,0.845c0.16,0.133,0.275,0.263,0.339-0.056
		c0.471,0.331,0.44,1.133,1.155,1.239c0.026,0.102,0.019,0.233,0.082,0.302c1.213,1.355,2.704,2.267,4.476,2.675
		c1.338,0.306,2.678,0.427,4.044,0.043c1.548-0.437,3.062-0.89,4.193-2.146c0.821-0.914,1.748-1.708,2.083-2.999
		c0.141-0.542,0.298-1.158,0.674-1.64c0.02,0.017,0.037,0.032,0.057,0.051c-0.005,0.276-0.088,0.564,0.104,0.924
		C45.521,54.999,45.42,54.7,45.45,54.422L45.45,54.422z"/>
	<path fill="#F7C66B" d="M49.938,63.879c2.513-0.208,4.389,0.934,5.92,2.801c0.244,0.3,0.208,0.541-0.077,0.832
		c-1.041,1.058-2.053,2.143-3.072,3.217c-0.831,0.872-1.663,1.741-2.475,2.626c-0.101,0.107-0.154,0.197-0.307,0.146
		C49.93,70.293,49.934,67.085,49.938,63.879z"/>
	<path fill="#F7F1AD" d="M49.938,63.879c-0.004,3.206-0.008,6.414-0.011,9.621c-0.456-0.164-0.587-0.639-0.892-0.948
		c-1.042-1.055-1.989-2.209-3.081-3.209c-0.565-0.518-1.084-1.063-1.612-1.611c-0.562-0.584-0.38-1.111,0.085-1.55
		c1.079-1.017,2.302-1.851,3.754-2.228C48.736,63.811,49.347,63.781,49.938,63.879z"/>
	<path fill="#434443" d="M19.845,59.954c-0.554-1.061-0.965-2.171-1.337-3.314c-0.637-1.958-0.575-3.946-0.544-5.945
		c0.002-0.085,0.044-0.168,0.068-0.252c0.118,0.896,0.269,1.783,0.528,2.652c0.05,0.167,0.142,0.26,0.266,0.351
		c0.28,0.202,0.316,0.433,0.009,0.617c-0.344,0.208-0.355,0.56-0.239,0.807c0.311,0.652,0.215,1.391,0.512,2.042
		c0.36,0.797,0.66,1.616,1.022,2.411c0.164,0.356,0.315,0.712,0.67,0.995c0.163,0.129,0.044,0.616,0.55,0.483
		c0.075-0.021,0.111,0.146,0.047,0.265c-0.228,0.429-0.204,0.498,0.271,0.502c0.305,0.002,0.333,0.103,0.268,0.351
		c-0.124,0.475-0.003,0.774,0.562,0.695c0.206-0.028,0.327,0.087,0.453,0.212c0.388,0.388,0.774,0.776,1.164,1.161
		c0.144,0.144,0.24,0.293,0.256,0.512c0.029,0.375,0.043,0.802,0.638,0.531c0.107-0.051,0.204,0.058,0.246,0.167
		c0.256,0.651,0.732,0.869,1.422,0.853c0.819-0.021,1.89,0.971,1.907,1.667c-0.883-0.306-1.73-0.702-2.496-1.227
		c-0.493-0.34-1.028-0.6-1.508-0.955c-1.376-1.02-2.536-2.26-3.559-3.62C20.565,61.31,20.232,60.609,19.845,59.954z"/>
	<path fill="#509D4D" d="M50.448,59.457c0.013,0.08,0.023,0.157,0.036,0.236c-0.026,0.178,0.069,0.259,0.228,0.291
		c0.013,0.079,0.026,0.156,0.038,0.235c-0.022,0.176,0.075,0.252,0.231,0.277c0.092,0.128,0.18,0.254,0.271,0.382
		c-0.013,0.18,0.08,0.27,0.252,0.293c-0.005,0.035,0,0.069,0.015,0.103c0.005,0.086,0.044,0.137,0.132,0.148
		c0.036,0.082,0.073,0.164,0.107,0.245c-0.009,0.155-0.094,0.233-0.243,0.247c-0.077,0.002-0.15,0.002-0.224,0.004
		c-0.381-0.478-0.921-0.113-1.363-0.263c0.064-0.131,0.221-0.317,0.181-0.387c-0.337-0.576-0.111-1.194-0.171-1.786
		c-0.017-0.172-0.063-0.294-0.253-0.315c-0.003-0.087-0.008-0.175-0.014-0.261c0.174,0,0.348,0.002,0.522,0.002
		c0.011,0.084,0.021,0.169,0.032,0.254C50.195,59.343,50.282,59.431,50.448,59.457z"/>
	<path fill="#61BB56" d="M49.685,59.169c0.19,0.021,0.236,0.143,0.253,0.316c0.06,0.592-0.167,1.208,0.171,1.784
		c0.04,0.069-0.117,0.256-0.181,0.388c-0.393,0.149-0.893-0.2-1.218,0.263c-0.075,0-0.15-0.002-0.226-0.002
		c-0.13-0.028-0.23-0.088-0.242-0.237l-0.008,0.01c0.183-0.012,0.22-0.131,0.214-0.284c0.017-0.074,0.033-0.149,0.05-0.224
		c0.184-0.02,0.265-0.12,0.25-0.303l0,0c0.236-0.028,0.246-0.215,0.275-0.391l-0.003,0.008c0.165-0.021,0.25-0.104,0.227-0.277
		c0.014-0.075,0.028-0.151,0.042-0.228c0.171-0.026,0.255-0.121,0.229-0.299C49.571,59.519,49.628,59.344,49.685,59.169z"/>
	<path fill="#E5E5E4" d="M48.236,53.934c-0.003-1.204-0.006-2.407-0.008-3.61c0.054,0.038,0.151,0.069,0.156,0.111
		c0.119,1.13,0.125,2.262,0.01,3.394C48.389,53.868,48.291,53.898,48.236,53.934z"/>
	<path fill="#A8A7A7" d="M51.739,50.569c0.058,1.115,0.052,2.233,0.002,3.349c-0.176-0.005-0.209-0.126-0.209-0.266
		c-0.004-0.94-0.004-1.88-0.004-2.818C51.53,50.694,51.557,50.569,51.739,50.569z"/>
	<path fill="#F9F8F8" d="M78.412,56.676c-0.387-0.075-0.315-0.398-0.261-0.616c0.104-0.429,0.308-0.834,0.265-1.295
		c-0.011-0.118,0.085-0.205,0.214-0.173c0.2,0.05,0.129,0.242,0.172,0.373c0.01,0.311-0.02,0.613-0.126,0.908
		c-0.502,0.131-0.208,0.527-0.265,0.806L78.412,56.676L78.412,56.676z"/>
	<path fill="#434443" d="M48.708,61.919c0.325-0.463,0.825-0.113,1.218-0.263c0.442,0.149,0.983-0.215,1.363,0.263
		C50.429,61.919,49.57,61.919,48.708,61.919z"/>
	<path fill="#434443" d="M33.722,68.66c-0.439-0.018-0.879-0.034-1.319-0.052c0.087-0.637,0.578-0.269,0.883-0.341
		C33.571,68.199,33.751,68.335,33.722,68.66z"/>
	<path fill="#434443" d="M48.667,60.04c-0.14-0.009-0.202-0.105-0.154-0.216c0.142-0.327,0.204-0.729,0.605-0.857
		c0.12-0.039,0.191,0.161,0.135,0.225C49.026,59.454,49.104,59.928,48.667,60.04z"/>
	<path fill="#434443" d="M31.614,68.534c-0.396-0.093-0.876,0.181-1.191-0.274c0.19-0.014,0.365-0.014,0.549-0.135
		C31.439,67.818,31.641,68.018,31.614,68.534z"/>
	<path fill="#434443" d="M47.663,61.431c0.091-0.473,0.225-0.813,0.634-1.162C48.265,60.856,48.177,61.24,47.663,61.431z"/>
	<path fill="#E5E5E4" d="M51.765,53.901c0.435,0.076,0.243,0.425,0.271,0.662c0.024,0.228-0.008,0.464-0.017,0.695
		C51.594,54.87,51.811,54.36,51.765,53.901z"/>
	<path fill="#E5E5E4" d="M47.962,55.354c0.093-0.397-0.27-0.895,0.262-1.196C48.17,54.563,48.406,55.032,47.962,55.354z"/>
	<path fill="#434443" d="M51.489,59.812c0.013,0.146-0.039,0.259-0.168,0.213c-0.188-0.064-0.316-0.216-0.325-0.43
		c-0.006-0.104-0.006-0.256,0.137-0.238C51.393,59.389,51.402,59.648,51.489,59.812z"/>
	<path fill="#434443" d="M55.219,70.235c-0.098,0.166-0.116,0.237-0.162,0.266c-0.195,0.132-0.16,0.479-0.463,0.496
		C54.552,71,54.463,70.9,54.469,70.891C54.623,70.633,54.723,70.312,55.219,70.235z"/>
	<path fill="#434443" d="M56.077,69.438c-0.124-0.372,0.065-0.491,0.261-0.599c0.028-0.014,0.141,0.049,0.145,0.082
		C56.512,69.194,56.282,69.263,56.077,69.438z"/>
	<path fill="#E5E5E4" d="M47.712,56.183c0.047-0.288-0.244-0.681,0.252-0.834C47.905,55.635,48.12,56.002,47.712,56.183z"/>
	<path fill="#434443" d="M51.514,61.915c0.149-0.014,0.235-0.092,0.243-0.247c0.215,0.016,0.31,0.133,0.256,0.337
		c-0.018,0.066-0.095,0.147-0.161,0.164C51.648,62.223,51.528,62.129,51.514,61.915z"/>
	<path fill="#434443" d="M48.241,61.681c0.012,0.149,0.111,0.209,0.241,0.237c-0.016,0.213-0.134,0.298-0.34,0.256
		c-0.122-0.024-0.167-0.114-0.173-0.229C47.96,61.753,48.065,61.681,48.241,61.681z"/>
	<path fill="#E5E5E4" d="M78.412,56.679c0.056-0.28-0.238-0.675,0.265-0.807C78.61,56.148,78.816,56.516,78.412,56.679z"/>
	<path fill="#434443" d="M30.425,68.263c-0.279-0.066-0.645,0.146-0.82-0.257C29.88,68.084,30.278,67.77,30.425,68.263z"/>
	<path fill="#A8A7A7" d="M52.013,49.118c0.003,0.265,0.008,0.53,0.012,0.794c-0.08,0.011-0.16,0.021-0.241,0.03
		C51.833,49.662,51.589,49.298,52.013,49.118z"/>
	<path fill="#E5E5E4" d="M51.783,49.944c0.081-0.01,0.161-0.02,0.241-0.03c-0.042,0.243,0.197,0.594-0.263,0.675
		C51.769,50.374,51.775,50.158,51.783,49.944z"/>
	<path fill="#434443" d="M50.193,58.91c-0.175,0-0.348-0.002-0.522-0.002c0.009-0.187,0.107-0.274,0.294-0.261
		C50.13,58.658,50.181,58.767,50.193,58.91z"/>
	<path fill="#E5E5E4" d="M47.445,56.963c0-0.225-0.129-0.502,0.244-0.565C47.675,56.615,47.789,56.888,47.445,56.963z"/>
	<path fill="#E5E5E4" d="M47.167,57.723c0.01-0.211-0.105-0.482,0.247-0.537C47.416,57.403,47.476,57.647,47.167,57.723z"/>
	<path fill="#434443" d="M29.374,67.981c-0.217-0.01-0.477,0.084-0.559-0.24C29.028,67.759,29.307,67.621,29.374,67.981z"/>
	<path fill="#434443" d="M49.021,60.489c-0.028,0.176-0.039,0.361-0.276,0.391C48.744,60.683,48.742,60.488,49.021,60.489z"/>
	<path fill="#434443" d="M54.973,69.209c0.033,0.08,0.074,0.133,0.074,0.185c-0.001,0.097-0.068,0.15-0.157,0.101
		c-0.038-0.019-0.058-0.108-0.047-0.158C54.852,69.294,54.914,69.263,54.973,69.209z"/>
	<path fill="#434443" d="M48.447,61.405c0.006,0.153-0.032,0.273-0.214,0.284C48.215,61.529,48.273,61.423,48.447,61.405z"/>
	<path fill="#E5E5E4" d="M48.229,50.33c-0.195-0.028-0.349-0.071-0.108-0.271C48.285,50.097,48.263,50.211,48.229,50.33z"/>
	<path fill="#434443" d="M48.974,63.036c0.037,0.018,0.093,0.024,0.104,0.053c0.01,0.024-0.025,0.069-0.042,0.107
		c-0.037-0.018-0.094-0.024-0.104-0.052C48.921,63.118,48.958,63.074,48.974,63.036z"/>
	<path fill="#434443" d="M27.933,64.412c0.084,0.017,0.169,0.036,0.255,0.055c-0.042,0.06-0.084,0.171-0.126,0.171
		C27.923,64.636,27.941,64.507,27.933,64.412z"/>
	<path fill="#434443" d="M38.73,65.503c0.085-0.012,0.169-0.024,0.254-0.036c-0.011,0.096,0.009,0.228-0.137,0.223
		C38.807,65.688,38.769,65.567,38.73,65.503z"/>
	<path fill="#434443" d="M49.515,59.693c0.027,0.178-0.057,0.272-0.229,0.299C49.27,59.821,49.329,59.708,49.515,59.693z"/>
	<path fill="#434443" d="M50.712,59.984c-0.159-0.032-0.254-0.113-0.228-0.291C50.666,59.708,50.726,59.817,50.712,59.984z"/>
	<path fill="#434443" d="M49.245,60.22c0.023,0.173-0.063,0.256-0.228,0.277C49.009,60.332,49.074,60.233,49.245,60.22z"/>
	<path fill="#434443" d="M50.981,60.495c-0.156-0.023-0.254-0.1-0.231-0.276C50.924,60.233,50.987,60.337,50.981,60.495z"/>
	<path fill="#434443" d="M50.448,59.457c-0.166-0.026-0.253-0.114-0.223-0.292C50.406,59.184,50.463,59.295,50.448,59.457z"/>
	<path fill="#434443" d="M48.747,60.879c0.016,0.183-0.065,0.284-0.249,0.303C48.479,60.998,48.553,60.889,48.747,60.879z"/>
	<path fill="#434443" d="M51.504,61.171c-0.172-0.023-0.265-0.114-0.252-0.293C51.439,60.887,51.517,60.99,51.504,61.171z"/>
	<path fill="#434443" d="M47.662,61.515c-0.001,0.002-0.027,0.068-0.073,0.086c-0.069,0.027-0.123-0.024-0.092-0.093
		c0.019-0.043,0.086-0.068,0.135-0.094C47.693,61.383,47.711,61.402,47.662,61.515z"/>
	<path fill="#434443" d="M47.692,71.949c-0.095-0.02-0.208-0.015-0.2-0.16c0-0.015,0.025-0.04,0.041-0.042
		c0.145-0.009,0.142,0.104,0.16,0.2L47.692,71.949z"/>
	<path fill="#434443" d="M47.693,71.947c0.094,0.018,0.208,0.014,0.198,0.159c-0.001,0.017-0.026,0.041-0.041,0.041
		c-0.145,0.009-0.141-0.104-0.158-0.198L47.693,71.947z"/>
	<path fill="#434443" d="M32.12,68.591c-0.149,0.052-0.287,0.033-0.417-0.056C31.845,68.526,31.992,68.492,32.12,68.591z"/>
	<path fill="#434443" d="M51.65,61.423c-0.089-0.013-0.128-0.063-0.132-0.148C51.562,61.323,51.605,61.373,51.65,61.423z"/>
	<path fill="#519E4E" d="M18.045,49.424c0.113-0.437-0.299-0.982,0.274-1.324C18.254,48.547,18.479,49.054,18.045,49.424z"/>
	<path fill="#434343" d="M29.607,58.162c-0.715-0.106-0.684-0.908-1.155-1.239c-0.012-0.088-0.024-0.174-0.036-0.26
		c-0.092-0.321-0.033-0.724-0.464-0.863c0.056-0.555-0.246-1.038-0.367-1.549c-0.312-1.32-0.299-2.63,0.126-3.862
		c0.25-0.722,0.323-1.569,0.947-2.11c0.464,0.967,1.231,1.672,2.295,2.05c2.098,0.744,3.851,0.216,5.297-1.438
		c0.17-0.019,0.241-0.119,0.234-0.285c0.031-0.133,0.06-0.267,0.091-0.4c0.026-0.036,0.041-0.076,0.041-0.12l-0.001,0.004
		c0.441-0.084,0.214-0.43,0.262-0.669l-0.002,0.007c0.092,0.003,0.184,0.005,0.274,0.008c0.167,0.528-0.279,0.946-0.262,1.448
		c-0.371,0.114-0.427,0.405-0.473,0.793c0.416-0.181,0.378-0.523,0.473-0.793c0.715-0.02,0.597-0.665,0.773-1.072
		c0.065-0.149,0.104-0.414-0.068-0.539c-0.163-0.117-0.253,0.204-0.442,0.161c0-0.461-0.002-0.922,0.001-1.383
		c0.001-0.124-0.019-0.368,0.08-0.348c0.826,0.172,0.385-0.465,0.424-0.708c0.067-0.421,0.118-0.682,0.642-0.501
		c0.39,0.135,0.81,0.174,1.208,0.283c0.52,0.142,1.021,0.371,1.419,0.713c0.528,0.454,0.82,1.136,1.385,1.571
		c0.631,0.486,1.021,1.196,1.59,1.752c0.438,0.427,0.591,1.369,0.488,2.146c-0.045,0.344-0.164,0.636,0.194,0.934
		c0.183,0.151,0.192,0.578-0.051,0.775c-0.324,0.261-0.313,0.585-0.246,0.895c0.384,1.767-0.543,3.093-1.483,4.396
		c-0.753,1.048-2.093,1.354-3.011,2.211c-0.065,0.062-0.252,0.014-0.374-0.014c-0.13-0.031-0.26-0.097-0.368,0.016
		c-0.589,0.62-1.298,0.456-2.016,0.341c-0.445-0.069-0.936-0.182-1.347-0.064c-1.735,0.496-3.03-0.456-4.365-1.251
		c-0.489-0.292-0.887-0.734-1.333-1.099C29.855,57.994,29.705,57.968,29.607,58.162z"/>
	<path fill="#434443" d="M37.148,47.437c-0.091-0.003-0.183-0.005-0.275-0.008c-0.014-0.822,0.11-1.652-0.234-2.447
		c-0.119-0.275-0.125-0.61-0.396-0.794c-0.167-0.114-0.149-0.248-0.128-0.398c0.032-0.243,0.228-0.162,0.357-0.154
		c0.925,0.056,1.824,0.175,2.691,0.574c0.693,0.318,1.487,0.43,2.122,0.875c1.172,0.824,2.196,1.841,2.889,3.077
		c0.502,0.896,0.689,1.97,1.018,2.965c0.014,0.396,0.028,0.794,0.042,1.191c0,0.128,0.001,0.257,0.001,0.386
		c-0.025,0.565-0.05,1.13-0.075,1.694c-0.375,0.481-0.533,1.097-0.673,1.64c-0.336,1.291-1.263,2.085-2.084,2.999
		c-1.131,1.256-2.645,1.709-4.193,2.146c-1.365,0.386-2.706,0.263-4.043-0.043c-1.772-0.408-3.263-1.319-4.476-2.675
		c-0.062-0.068-0.056-0.2-0.082-0.302c0.098-0.196,0.248-0.168,0.379-0.062c0.446,0.364,0.844,0.807,1.333,1.098
		c1.334,0.797,2.629,1.749,4.364,1.253c0.411-0.118,0.903-0.006,1.347,0.063c0.719,0.115,1.427,0.279,2.016-0.341
		c0.108-0.112,0.239-0.046,0.368-0.015c0.123,0.025,0.31,0.073,0.374,0.013c0.918-0.858,2.258-1.164,3.012-2.212
		c0.939-1.303,1.867-2.628,1.483-4.396c-0.067-0.311-0.078-0.634,0.247-0.896c0.242-0.195,0.233-0.623,0.05-0.774
		c-0.358-0.298-0.24-0.59-0.194-0.934c0.103-0.777-0.051-1.719-0.488-2.146c-0.568-0.556-0.959-1.266-1.59-1.752
		c-0.564-0.435-0.856-1.118-1.384-1.571c-0.397-0.343-0.9-0.571-1.42-0.713c-0.399-0.11-0.82-0.149-1.208-0.283
		c-0.524-0.182-0.575,0.079-0.642,0.5c-0.039,0.243,0.402,0.881-0.423,0.708c-0.099-0.021-0.08,0.223-0.08,0.348
		c-0.005,0.461-0.002,0.922-0.002,1.383L37.148,47.437z"/>
	<path fill="#E5E5E4" d="M45.16,54.397c0.025-0.565,0.05-1.13,0.075-1.694c0.422,0.199,0.167,0.575,0.211,0.868
		c0.042,0.277,0.006,0.566,0.003,0.851l0.002-0.001c-0.078,0.009-0.157,0.018-0.235,0.027C45.198,54.43,45.179,54.414,45.16,54.397z
		"/>
	<path fill="#E5E5E4" d="M45.233,52.317c-0.014-0.397-0.029-0.795-0.042-1.192C45.61,51.506,45.589,51.905,45.233,52.317z"/>
	<path fill="#E5E5E4" d="M27.952,55.801c0.432,0.14,0.373,0.541,0.464,0.864C28.019,56.507,27.86,56.222,27.952,55.801z"/>
	<path fill="#434443" d="M36.876,47.421c-0.048,0.239,0.179,0.584-0.262,0.669C36.646,47.847,36.527,47.543,36.876,47.421z"/>
	<path fill="#434443" d="M36.484,48.607c0.007,0.166-0.063,0.267-0.234,0.285C36.232,48.717,36.312,48.625,36.484,48.607z"/>
	<path fill="#434443" d="M36.616,48.086c0,0.044-0.015,0.084-0.041,0.12c-0.001-0.031-0.007-0.062-0.003-0.092
		C36.575,48.103,36.601,48.095,36.616,48.086z"/>
	<path fill="#434343" d="M71.789,56.361c-0.387,0.218-0.527,0.658-0.685,0.991c-0.536,1.158-1.495,1.893-2.474,2.557
		c-1.777,1.209-3.807,1.694-5.939,1.453c-1.795-0.204-3.522-0.781-4.858-2.03c-1.267-1.182-2.348-2.569-2.851-4.277
		c-0.169-0.576-0.152-1.215-0.173-1.827c-0.024-0.699,0.002-1.4,0.005-2.102c-0.007-0.873,0.488-1.604,0.7-2.417
		c0.048-0.178,0.167-0.469,0.396-0.445c0.18,0.019,0.294,0.23,0.376,0.457c0.244,0.675,0.733,1.142,1.419,1.388
		c0.015,0.171,0.118,0.23,0.277,0.221l-0.006-0.003c0.118,0.496,0.521,0.184,0.782,0.275h0.002c0.023,0.181,0.128,0.262,0.308,0.261
		c0.54-0.002,1.081-0.002,1.621,0.001c0.175,0,0.286-0.072,0.316-0.252l0.012-0.002c0.258-0.095,0.649,0.2,0.774-0.271l0.002,0
		c0.209-0.023,0.493,0.088,0.521-0.276c0.095-0.039,0.19-0.077,0.284-0.115c0.147-0.008,0.24-0.077,0.248-0.233
		c0.057-0.1,0.114-0.199,0.171-0.298c0.155-0.009,0.22-0.101,0.231-0.246l0.008-0.012c0.17-0.014,0.248-0.108,0.243-0.277
		l-0.002,0.002c0.353-0.028,0.248-0.305,0.277-0.51l0.004-0.009c0.344-0.055,0.232-0.326,0.252-0.532l0,0
		c0.113-0.018,0.242-0.06,0.242-0.175c0.005-0.819-0.004-1.64-0.021-2.459c-0.002-0.045-0.131-0.088-0.2-0.133
		c-0.011-0.078-0.021-0.157-0.029-0.235c0.042-0.285-0.056-0.45-0.369-0.424c-0.053-0.086-0.101-0.17-0.151-0.257
		c0.04-0.317,0.285-0.267,0.497-0.269c0.367-0.004,0.734-0.005,1.103-0.007c0.082,0.005,0.165,0.011,0.247,0.016
		c0.195,0.474,0.613,0.161,0.913,0.258l0.008,0c0.133,0.448,0.513,0.184,0.772,0.267l0.017,0.003
		c0.056,0.337,0.321,0.229,0.525,0.252c0.098,0.027,0.196,0.055,0.292,0.083c0.065,0.017,0.131,0.033,0.199,0.049
		c0.543,0.573,1.341,0.804,1.878,1.38c0.875,0.94,1.468,2.03,1.982,3.221c0.583,1.352,0.725,2.696,0.63,4.102
		c-0.056,0.846-0.474,1.604-0.697,2.414C71.829,56.063,71.816,56.215,71.789,56.361z M64.454,44.555
		c0.024-0.054,0.075-0.124,0.083-0.199c0.012-0.091-0.05-0.186-0.148-0.136c-0.052,0.026-0.067,0.145-0.08,0.224
		C64.299,44.507,64.325,44.571,64.454,44.555z"/>
	<path fill="#454545" d="M64.055,45.063c0.069,0.044,0.197,0.087,0.199,0.132c0.019,0.819,0.025,1.639,0.021,2.459
		c0,0.116-0.13,0.158-0.242,0.175C64.202,46.909,64.193,45.987,64.055,45.063z"/>
	<path fill="#454545" d="M61.007,50.609c-0.03,0.18-0.142,0.252-0.316,0.252c-0.54-0.002-1.081-0.002-1.621-0.001
		c-0.18,0.001-0.284-0.08-0.308-0.261C59.511,50.603,60.257,50.605,61.007,50.609z"/>
	<path fill="#454545" d="M65.103,43.873c-0.368,0.001-0.735,0.002-1.103,0.007c-0.212,0.002-0.457-0.048-0.497,0.269
		c-0.151-0.105-0.283-0.238-0.193-0.43c0.063-0.132,0.237-0.11,0.352-0.088C64.14,43.723,64.676,43.478,65.103,43.873z"/>
	<path fill="#454545" d="M66.264,44.146c-0.301-0.097-0.719,0.216-0.912-0.258C65.684,43.875,66.015,43.862,66.264,44.146z"/>
	<path fill="#454545" d="M61.792,50.336c-0.126,0.47-0.518,0.176-0.773,0.27C61.226,50.372,61.501,50.326,61.792,50.336z"/>
	<path fill="#454545" d="M67.043,44.414c-0.259-0.084-0.639,0.182-0.771-0.266C66.575,44.105,66.827,44.205,67.043,44.414z"/>
	<path fill="#454545" d="M58.76,50.6c-0.262-0.092-0.664,0.222-0.783-0.275C58.265,50.337,58.567,50.31,58.76,50.6z"/>
	<path fill="#454545" d="M62.313,50.059c-0.026,0.365-0.311,0.253-0.521,0.276C61.886,50.087,62.091,50.055,62.313,50.059z"/>
	<path fill="#454545" d="M63.776,48.372c-0.028,0.204,0.076,0.482-0.277,0.51C63.47,48.646,63.612,48.503,63.776,48.372z"/>
	<path fill="#454545" d="M67.585,44.67c-0.204-0.023-0.47,0.084-0.525-0.252C67.292,44.379,67.467,44.469,67.585,44.67z"/>
	<path fill="#454545" d="M63.654,44.405c0.314-0.026,0.411,0.139,0.369,0.424C63.842,44.737,63.583,44.715,63.654,44.405z"/>
	<path fill="#454545" d="M64.032,47.831c-0.02,0.207,0.092,0.478-0.252,0.532C63.754,48.133,63.849,47.96,64.032,47.831z"/>
	<path fill="#454545" d="M63.501,48.879c0.005,0.168-0.073,0.263-0.243,0.277C63.25,48.985,63.338,48.897,63.501,48.879z"/>
	<path fill="#454545" d="M63.25,49.167c-0.012,0.145-0.076,0.236-0.231,0.246C63.024,49.264,63.127,49.207,63.25,49.167z"/>
	<path fill="#454545" d="M62.848,49.711c-0.01,0.156-0.101,0.226-0.248,0.234C62.63,49.81,62.685,49.703,62.848,49.711z"/>
	<path fill="#454545" d="M57.983,50.328c-0.16,0.01-0.264-0.049-0.277-0.221C57.88,50.079,57.959,50.17,57.983,50.328z"/>
	<path fill="#454545" d="M68.076,44.801c-0.067-0.016-0.133-0.032-0.199-0.049C67.947,44.756,68.028,44.706,68.076,44.801z"/>
	<path fill="#F9F8F8" d="M78.694,51.517c0-0.437,0-0.872,0-1.31c0.021,0,0.043,0,0.064,0c0,0.438,0,0.874,0,1.31
		C78.737,51.517,78.717,51.517,78.694,51.517z"/>
	<path fill="#F9F8F8" d="M78.698,54.014c0-0.388,0-0.776,0-1.166c0.019,0.002,0.038,0.002,0.057,0.002c0,0.388,0,0.776,0,1.165
		C78.736,54.015,78.719,54.014,78.698,54.014z"/>
	<path fill="#F9F8F8" d="M52.293,55.314c0.164,0.179,0.145,0.299,0.112,0.458C52.245,55.628,52.335,55.473,52.293,55.314z"/>
	<path fill="#F9F8F8" d="M45.216,54.447c0.078-0.01,0.157-0.019,0.236-0.027c-0.032,0.28,0.07,0.579-0.131,0.952
		C45.128,55.012,45.211,54.724,45.216,54.447z"/>
	<path fill="#434443" d="M37.15,47.436c0.188,0.044,0.279-0.278,0.442-0.161c0.171,0.125,0.132,0.39,0.067,0.538
		c-0.176,0.408-0.058,1.052-0.773,1.072l0,0c-0.017-0.501,0.429-0.92,0.262-1.448L37.15,47.436z"/>
	<path fill="#434443" d="M36.885,48.886c-0.094,0.269-0.057,0.612-0.473,0.793C36.458,49.291,36.515,48.999,36.885,48.886
		L36.885,48.886z"/>
	<path fill="#454545" d="M64.454,44.555c-0.129,0.017-0.155-0.047-0.146-0.111c0.013-0.08,0.028-0.198,0.08-0.224
		c0.099-0.05,0.16,0.045,0.148,0.136C64.529,44.431,64.479,44.501,64.454,44.555z"/>
</g>
</svg>
