<?xml version="1.0" encoding="utf-8"?>
<!-- Generator: Adobe Illustrator 16.0.0, SVG Export Plug-In . SVG Version: 6.00 Build 0)  -->
<!DOCTYPE svg PUBLIC "-//W3C//DTD SVG 1.1//EN" "http://www.w3.org/Graphics/SVG/1.1/DTD/svg11.dtd">
<svg version="1.1" id="Layer_1" xmlns="http://www.w3.org/2000/svg" xmlns:xlink="http://www.w3.org/1999/xlink" x="0px" y="0px"
	 width="350px" height="350px" viewBox="0 0 350 350" enable-background="new 0 0 350 350" xml:space="preserve">
<g>
	<g>
		<g>
			<path fill="#36495E" d="M203.934,54.716l-14.465-25.044L175.002,4.62l-14.464,25.052l-14.462,25.044L131.61,79.77l-14.462,25.055
				l-14.461,25.043l-14.466,25.054L73.77,179.966l-14.466,25.053l-14.461,25.055l-14.464,25.043l-14.465,25.055h28.929
				l14.461-25.055l14.466-25.043l14.452-25.055l14.466-25.053h57.851l14.464-25.043l14.467-25.054l14.465-25.043l14.462-25.055
				L203.934,54.716z M175.002,104.825l-14.464,25.043l-14.462,25.054h-28.928l14.462-25.054l14.466-25.043l14.462-25.055
				l14.464-25.054l14.467,25.054L175.002,104.825z"/>
			<polygon fill="#42B682" points="334.09,280.171 73.766,280.171 88.222,255.116 102.688,230.073 117.148,205.019 146.076,205.019 
				131.613,230.073 117.148,255.116 290.699,255.116 276.246,230.073 160.542,230.073 175.002,205.019 189.469,179.966 
				203.934,154.922 218.396,129.868 232.855,104.825 247.317,129.868 261.784,154.922 276.246,179.966 247.317,179.966 
				232.855,154.922 218.396,179.966 203.934,205.019 290.699,205.019 305.166,230.073 319.628,255.116 			"/>
		</g>
		<g>
			<g>
				<path fill="#36495E" d="M22.22,325.124v18.588h-6.31v-41.42h10.188c3.018,0,5.239,0.164,6.66,0.496
					c1.426,0.33,2.668,0.873,3.724,1.625c1.301,0.961,2.32,2.258,3.056,3.893c0.733,1.631,1.103,3.426,1.103,5.387
					c0,1.965-0.369,3.777-1.103,5.436c-0.735,1.66-1.755,2.961-3.056,3.902c-1.056,0.756-2.298,1.295-3.724,1.611
					c-1.421,0.322-3.643,0.482-6.66,0.482h-1.33H22.22z M22.645,319.606h1.729c3.733,0,6.223-0.404,7.468-1.215
					c1.246-0.813,1.868-2.244,1.868-4.299c0-2.211-0.666-3.766-1.995-4.668c-1.331-0.906-3.778-1.361-7.341-1.361h-1.729V319.606z"
					/>
				<path fill="#36495E" d="M53.059,325.179v18.533h-6.31v-41.42h9.395c2.755,0,4.889,0.182,6.409,0.535
					c1.516,0.363,2.813,0.953,3.887,1.785c1.283,1.002,2.272,2.293,2.971,3.875c0.702,1.586,1.049,3.322,1.049,5.205
					c0,3.32-0.8,5.92-2.404,7.799c-1.604,1.875-3.972,3.002-7.104,3.379l14.262,18.842h-7.611l-13.778-18.533H53.059z
					 M53.482,319.948H54.7c3.566,0,5.93-0.414,7.104-1.248c1.169-0.828,1.753-2.301,1.753-4.41c0-2.283-0.629-3.893-1.881-4.82
					c-1.254-0.936-3.582-1.406-6.976-1.406h-1.218V319.948z"/>
				<path fill="#36495E" d="M79.316,343.712v-41.42h6.729v41.42H79.316z"/>
				<path fill="#36495E" d="M129.506,323.257c-0.077-0.322-0.2-1.205-0.368-2.66c-0.15-1.205-0.281-2.205-0.395-2.994
					c-0.172,0.943-0.413,1.883-0.725,2.828c-0.311,0.941-0.701,1.904-1.172,2.885l-10.838,22.064l-10.834-22.518
					c-0.453-0.924-0.844-1.818-1.173-2.688c-0.332-0.869-0.621-1.727-0.861-2.572c-0.022,0.863-0.093,1.773-0.217,2.725
					c-0.12,0.955-0.307,1.945-0.552,2.988l-4.439,20.396h-6.196l9.789-43.176l12.222,26.145c0.19,0.418,0.475,1.104,0.861,2.064
					c0.389,0.961,0.856,2.148,1.4,3.566c0.398-1.191,1.02-2.695,1.871-4.527c0.223-0.488,0.394-0.865,0.507-1.133l11.938-26.115
					l10.016,43.176h-6.251L129.506,323.257z"/>
				<path fill="#36495E" d="M177.904,343.712l-4.697-10.668h-16.41l-4.808,10.668h-7.074l20.06-43.059l20.028,43.059H177.904z
					 M159.285,327.444h11.547l-4.246-9.449c-0.244-0.605-0.496-1.297-0.764-2.078c-0.263-0.785-0.525-1.658-0.793-2.619
					c-0.223,0.906-0.464,1.748-0.719,2.533c-0.257,0.783-0.516,1.504-0.779,2.164L159.285,327.444z"/>
			</g>
			<g>
				<path fill="#42B682" d="M188.945,335.423l5.375-2.49c0.511,1.85,1.441,3.26,2.803,4.23c1.354,0.975,3.092,1.455,5.207,1.455
					c1.997,0,3.588-0.555,4.766-1.666c1.18-1.115,1.768-2.602,1.768-4.475c0-2.432-2.019-4.6-6.05-6.504
					c-0.566-0.283-1.001-0.49-1.306-0.623c-4.562-2.227-7.607-4.238-9.123-6.039c-1.519-1.803-2.283-4.006-2.283-6.605
					c0-3.377,1.149-6.109,3.441-8.209c2.289-2.088,5.294-3.137,9.013-3.137c3.056,0,5.609,0.586,7.666,1.768
					c2.053,1.18,3.48,2.873,4.271,5.076l-5.261,2.717c-0.83-1.299-1.744-2.254-2.729-2.857c-0.991-0.607-2.124-0.906-3.414-0.906
					c-1.809,0-3.248,0.473-4.309,1.416c-1.071,0.941-1.597,2.211-1.597,3.791c0,2.488,2.329,4.809,7.013,6.963
					c0.357,0.168,0.641,0.299,0.85,0.395c4.091,1.883,6.902,3.73,8.429,5.529c1.531,1.803,2.294,4.051,2.294,6.746
					c0,3.926-1.239,7.045-3.706,9.352c-2.47,2.313-5.807,3.465-10.018,3.465c-3.524,0-6.414-0.811-8.669-2.432
					C191.119,340.759,189.644,338.438,188.945,335.423z"/>
				<path fill="#42B682" d="M250.479,343.712l-4.693-10.668h-16.41l-4.81,10.668h-7.074l20.061-43.059l20.027,43.059H250.479z
					 M231.863,327.444h11.542l-4.24-9.449c-0.247-0.605-0.5-1.297-0.762-2.078c-0.267-0.785-0.533-1.658-0.795-2.619
					c-0.224,0.906-0.464,1.748-0.722,2.533c-0.254,0.783-0.514,1.504-0.781,2.164L231.863,327.444z"/>
				<path fill="#42B682" d="M261.485,343.712v-41.42h6.731v17.146l14.887-17.146h8.23l-16.411,18.418l18.361,23.002h-8.684
					l-16.384-21.164v21.164H261.485z"/>
				<path fill="#42B682" d="M312.355,308.007v35.705h-6.731v-35.705h-11.006v-5.715h28.684v5.715H312.355z"/>
				<path fill="#42B682" d="M327.36,343.712v-41.42h6.729v41.42H327.36z"/>
			</g>
		</g>
	</g>
</g>
</svg>
